<?xml version="1.0" encoding="UTF-8"?>
<svg width="120px" height="120px" viewBox="0 0 120 120" version="1.1" xmlns="http://www.w3.org/2000/svg" xmlns:xlink="http://www.w3.org/1999/xlink">
    <!-- Generator: Sketch 52.5 (67469) - http://www.bohemiancoding.com/sketch -->
    <title>Profile</title>
    <desc>Created with Sketch.</desc>
    <defs>
        <linearGradient x1="82.0606159%" y1="0%" x2="16.3948918%" y2="98.6203938%" id="linearGradient-1">
            <stop stop-color="#50B99F" offset="0%"></stop>
            <stop stop-color="#078587" offset="100%"></stop>
        </linearGradient>
        <circle id="path-2" cx="60" cy="60" r="60"></circle>
    </defs>
    <g id="Desktop" stroke="none" stroke-width="1" fill="none" fill-rule="evenodd">
        <g id="2-About" transform="translate(-766.000000, -1162.000000)">
            <g id="Team-Section" transform="translate(271.000000, 974.000000)">
                <g id="Team-Members" transform="translate(232.000000, 188.000000)">
                    <g id="#2" transform="translate(226.000000, 0.000000)">
                        <g id="Profile" transform="translate(37.000000, 0.000000)">
                            <mask id="mask-3" fill="white">
                                <use xlink:href="#path-2"></use>
                            </mask>
                            <use id="Mask" fill="url(#linearGradient-1)" opacity="0.297944568" xlink:href="#path-2"></use>
                            <g id="Jayden-Profile" mask="url(#mask-3)">
                                <g transform="translate(11.000000, 14.000000)">
                                    <path d="M23.3628319,50.9734513 L20.6732261,49.6560116 C20.0437214,49.3476878 19.6460177,48.7174286 19.6460177,48.0277732 L19.6460177,41.1757666 C19.6460177,40.4863175 20.0437214,39.855852 20.6732261,39.5475282 L23.3628319,38.2300885 L23.3628319,50.9734513 Z" id="Path" fill="#707487"></path>
                                    <polygon id="Path" fill="#F3CDA0" points="65.3097345 74.2299931 65.3097345 61.5929204 32.3893805 61.5929204 32.3893805 74.2299931 48.8495575 88.6725664"></polygon>
                                    <path d="M90.8442833,80.5608707 L68.4549721,75.235899 C68.1167619,75.1555096 67.8058135,75.0189719 67.5147477,74.8534276 L49.3807359,85.5458448 L31.953891,74.3362832 C31.502739,74.7655794 30.9427449,75.0846509 30.3067047,75.2361062 L7.91739354,80.5610779 C4.64802813,81.3386593 2.33753993,84.2873772 2.33753993,87.6821735 L0,102.005997 C0,104.0263 1.62012941,105.663717 3.61864432,105.663717 L95.1424176,105.663717 C97.1411375,105.663717 98.7610619,104.026093 98.7610619,102.005997 L96.423522,87.6821735 C96.423932,84.28717 94.1134438,81.3382449 90.8442833,80.5608707 Z" id="Path" fill="#F04C23"></path>
                                    <path d="M32.3893805,61.5931293 L32.3893805,75.2139641 C53.1247613,82.7473871 65.3097345,63.8930411 65.3097345,63.8930411 L65.3097345,61.5929204 L32.3893805,61.5929204 L32.3893805,61.5931293 Z" id="Path" fill="#000000" opacity="0.205031622" style="mix-blend-mode: overlay;"></path>
                                    <path d="M26.0176991,20.1769912 L27.6015341,55.0780076 C27.7493752,58.3384028 29.3455646,61.3620384 31.9523445,63.3202554 L39.4675304,68.9657776 C41.3552839,70.3836546 43.6511445,71.1504425 46.0108363,71.1504425 L53.2811991,71.1504425 C55.6408909,71.1504425 57.9367515,70.3838608 59.824505,68.9657776 L67.3396909,63.3202554 C69.9464708,61.3618322 71.5426602,58.3386091 71.6905013,55.0780076 L73.2743363,20.1769912 C73.2743363,20.1769912 26.0176991,20.1769912 26.0176991,20.1769912 Z" id="Path" fill="#F3CDA0"></path>
                                    <path d="M44.3587612,27.4590012 C51.6952276,27.4590012 62.6996155,25.6385502 65.3097345,20.1769912 L26.0176991,20.1769912 L27.6159347,55.0780076 C27.76512,58.3384028 29.3758223,61.3618322 32.0065113,63.3202554 L39.5900269,68.9657776 C41.4949442,70.3836546 43.8116793,71.1504425 46.1928259,71.1504425 L49.8609552,71.1504425 C46.1928259,71.1504425 38.8563595,63.8684325 38.8563595,54.7661778 C38.8563595,50.3143534 38.8563595,38.381913 38.8563595,32.920354 C38.8563595,31.099903 40.6904241,27.4590012 44.3587612,27.4590012 Z" id="Path" fill="#000000" opacity="0.2" style="mix-blend-mode: overlay;"></path>
                                    <polygon id="Path" fill="#00506E" points="54.159292 105.663717 45.1327434 105.663717 46.2610619 89.2035398 53.0309735 89.2035398"></polygon>
                                    <path d="M54.159292,85.4867257 L45.1327434,85.4867257 L45.1327434,88.8176908 C45.1327434,89.9106356 46.0362981,90.7964602 47.1511186,90.7964602 L52.1407123,90.7964602 C53.2555328,90.7964602 54.1590875,89.9106356 54.1590875,88.8176908 L54.1590875,85.4867257 L54.159292,85.4867257 Z" id="Path" fill="#00506E"></path>
                                    <g id="Group" stroke-width="1" fill="none" transform="translate(28.000000, 70.000000)">
                                        <path d="M5.13651444,0.466218394 L21.5050334,15.269213 C21.5050334,15.269213 16.9209392,17.594597 11.2640583,22.2814475 C10.0971389,23.2481321 8.33195024,22.856525 7.70609033,21.4729551 L0.0158240107,4.47259798 L2.44866422,0.805842288 C3.05403406,-0.107432048 4.32482384,-0.267662769 5.13651444,0.466218394 Z" id="Path" fill="#F26542"></path>
                                        <path d="M37.8733495,0.466218394 L21.5048305,15.269213 C21.5048305,15.269213 26.0889247,17.594597 31.7458056,22.2814475 C32.912725,23.2481321 34.6779137,22.856525 35.3037736,21.4729551 L42.9940399,4.47259798 L40.5611997,0.805842288 C39.955627,-0.107432048 38.6848372,-0.267662769 37.8733495,0.466218394 Z" id="Path" fill="#F26542"></path>
                                    </g>
                                    <path d="M60,7.51217564 L61.7114445,19.6744598 C69.5241111,21.2456989 70.6500451,33.5747777 70.8121928,37.0961833 C70.8415614,37.7352855 71.0444529,38.3523426 71.3892236,38.8899538 L74.370136,43.539823 C74.370136,43.539823 73.3498875,35.8522944 78.0213554,30.6891469 C78.0215623,30.6891469 79.6256666,0.168842989 60,7.51217564 Z" id="Path" fill="#B8AB75"></path>
                                    <path d="M27.4694609,4.69146338 L30.1320336,6.5242705 C18.0935584,15.4805509 20.3435711,30.8423063 20.3435711,30.8423063 C23.943836,34.4701095 23.943836,43.539823 23.943836,43.539823 L27.544101,39.9120198 C27.544101,39.9120198 26.1546932,29.4322017 32.9444985,25.4006015 C39.2450641,21.6593652 44.7580336,23.5866999 50.3835751,23.5866999 C65.4598631,23.5866999 69.6790702,17.8614124 68.94776,10.8891831 C68.569257,7.28151842 63.0952391,-0.233422292 49.1460987,0.00556802874 C43.5166825,0.101945037 32.9449063,1.81946963 27.4694609,4.69146338 Z" id="Path" fill="#B8AB75"></path>
                                    <path d="M26.4088092,21.9104568 C26.4088092,21.9104568 24.4992876,14.2832386 30.1154678,6.37168142 C18.0970254,15.3648823 20.3432939,30.7899634 20.3432939,30.7899634 C23.9375677,34.4327214 23.9375677,43.539823 23.9375677,43.539823 L27.5318416,39.8970649 C27.5318416,39.8970649 26.1447459,29.3740459 32.9232525,25.3258262 C39.2133336,21.5691675 44.7171291,23.5044472 50.3333093,23.5044472 C52.7811372,23.5044472 54.9142067,23.338342 56.8141593,23.0535904 C45.2230637,23.4472905 38.3901972,14.5488005 26.4088092,21.9104568 Z" id="Path" fill="#000000" opacity="0.2" style="mix-blend-mode: overlay;"></path>
                                    <path d="M26.7255969,53.0973451 L24.0707296,53.0973451 C23.0932749,53.0973451 22.300885,52.2785216 22.300885,51.2684596 L22.300885,38.4660537 C22.300885,37.4559917 23.0932749,36.6371681 24.0707296,36.6371681 L26.7255969,36.6371681 C27.214224,36.6371681 27.6106195,37.0465799 27.6106195,37.5517145 L27.6106195,52.1827988 C27.610419,52.6881405 27.214224,53.0973451 26.7255969,53.0973451 Z" id="Path" fill="#5B5D6E"></path>
                                    <path d="M56.8141593,63.1858407 L56.8141593,60.4719081 C68.9773412,60.4719081 71.6405248,53.6152365 71.6405248,50.9734513 L74.3362832,50.9734513 C74.3360796,54.3703251 71.1883476,63.1858407 56.8141593,63.1858407 Z" id="Path" fill="#464655"></path>
                                    <path d="M56.6371681,63.7168142 L54.8672566,63.7168142 C53.889765,63.7168142 53.0973451,62.8847733 53.0973451,61.8584071 C53.0973451,60.8320409 53.889765,60 54.8672566,60 L56.6371681,60 C57.6146598,60 58.4070796,60.8320409 58.4070796,61.8584071 C58.4070796,62.8847733 57.6144593,63.7168142 56.6371681,63.7168142 Z" id="Path" fill="#5B5D6E"></path>
                                    <path d="M74.8672566,50.9734513 L77.5568624,49.6560116 C78.186367,49.3476878 78.5840708,48.7174286 78.5840708,48.0277732 L78.5840708,41.1757666 C78.5840708,40.4863175 78.186367,39.855852 77.5568624,39.5475282 L74.8672566,38.2300885 L74.8672566,50.9734513 Z" id="Path" fill="#707487"></path>
                                    <path d="M71.5044916,53.0973451 L74.1593589,53.0973451 C75.1368136,53.0973451 75.9292035,52.2785216 75.9292035,51.2684596 L75.9292035,38.4660537 C75.9292035,37.4559917 75.1368136,36.6371681 74.1593589,36.6371681 L71.5044916,36.6371681 C71.0158645,36.6371681 70.619469,37.0465799 70.619469,37.5517145 L70.619469,52.1827988 C70.6196695,52.6881405 71.0158645,53.0973451 71.5044916,53.0973451 Z" id="Path" fill="#5B5D6E"></path>
                                    <path d="M72.5073977,101.415929 L59.7049917,101.415929 C58.6949298,101.415929 57.8761062,102.24797 57.8761062,103.274336 L57.8761062,105.132743 L74.3362832,105.132743 L74.3362832,103.274336 C74.3362832,102.248181 73.5172524,101.415929 72.5073977,101.415929 Z" id="Path" fill="#F04C23"></path>
                                </g>
                            </g>
                        </g>
                    </g>
                </g>
            </g>
        </g>
    </g>
</svg>