<?xml version="1.0" encoding="UTF-8"?>
<svg width="120px" height="120px" viewBox="0 0 120 120" version="1.1" xmlns="http://www.w3.org/2000/svg" xmlns:xlink="http://www.w3.org/1999/xlink">
    <!-- Generator: Sketch 52.5 (67469) - http://www.bohemiancoding.com/sketch -->
    <title>Jeff C. Profile</title>
    <desc>Created with Sketch.</desc>
    <defs>
        <linearGradient x1="82.0606159%" y1="0%" x2="16.3948918%" y2="98.6203938%" id="linearGradient-1">
            <stop stop-color="#50B99F" offset="0%"></stop>
            <stop stop-color="#078587" offset="100%"></stop>
        </linearGradient>
        <circle id="path-2" cx="60" cy="60" r="60"></circle>
    </defs>
    <g id="Desktop" stroke="none" stroke-width="1" fill="none" fill-rule="evenodd">
        <g id="2-About" transform="translate(-540.000000, -1162.000000)">
            <g id="Team-Section" transform="translate(271.000000, 974.000000)">
                <g id="Team-Members" transform="translate(232.000000, 188.000000)">
                    <g id="#1">
                        <g id="Jeff-C.-Profile" transform="translate(37.000000, 0.000000)">
                            <mask id="mask-3" fill="white">
                                <use xlink:href="#path-2"></use>
                            </mask>
                            <use id="Mask" fill="url(#linearGradient-1)" opacity="0.297944568" xlink:href="#path-2"></use>
                            <g id="Jeff-Profile" mask="url(#mask-3)">
                                <g transform="translate(13.000000, 14.000000)">
                                    <path d="M21.1327434,51.0707965 L18.5840217,49.7356689 C17.9874911,49.4232055 17.6106195,48.7844845 17.6106195,48.0855699 L17.6106195,41.1415688 C17.6106195,40.4428631 17.9874911,39.8039331 18.5840217,39.4914698 L21.1327434,38.1563422 L21.1327434,51.0707965 Z" id="Path" fill="#707487"></path>
                                    <polygon id="Path" fill="#F3CDA0" points="63.3982301 74.2384496 63.3982301 61.6371681 30.5250737 61.6371681 30.5250737 74.2384496 46.9616519 88.640118"></polygon>
                                    <path d="M88.9059226,80.7334233 L66.4156321,75.4450545 C66.0758965,75.3652176 65.7635456,75.2296184 65.4711671,75.0652121 L47.2553681,85.6841315 L29.7499254,74.5516224 C29.2967387,74.9779677 28.7342189,75.294846 28.0953101,75.4452602 L5.60501961,80.733629 C2.32090886,81.5058654 0,84.4343143 0,87.8057755 L0,102.03114 C0,104.037555 1.62743645,105.663717 3.63496496,105.663717 L90.8753595,105.663717 C92.8830939,105.663717 94.5103245,104.037349 94.5103245,102.03114 L94.5103245,87.8057755 C94.5107363,84.4341086 92.1898274,81.5054539 88.9059226,80.7334233 Z" id="Path" fill="#01435C"></path>
                                    <path d="M30.5250737,61.6373752 L30.5250737,75.1381798 C51.2307264,82.6052162 63.3982301,63.9170196 63.3982301,63.9170196 L63.3982301,61.6371681 L30.5250737,61.6371681 L30.5250737,61.6373752 Z" id="Path" fill="#000000" opacity="0.205031622" style="mix-blend-mode: overlay;"></path>
                                    <path d="M23.480826,19.9587021 L25.0744487,54.9263697 C25.2232034,58.1929915 26.8292569,61.2224013 29.4521462,63.184358 L37.0137742,68.8406615 C38.9131935,70.2612463 41.2232421,71.0294985 43.5975163,71.0294985 L50.9128082,71.0294985 C53.2870824,71.0294985 55.5971309,70.2614529 57.4965503,68.8406615 L65.0581783,63.184358 C67.6810676,61.2221947 69.2871211,58.1931981 69.4358758,54.9263697 L71.0294985,19.9587021 C71.0294985,19.9587021 23.480826,19.9587021 23.480826,19.9587021 Z" id="Path" fill="#F3CDA0"></path>
                                    <path d="M42.2527678,27.2546187 C49.5963945,27.2546187 60.6115224,25.4306912 63.2241888,19.9587021 L23.8938053,19.9587021 L25.4936007,54.9263697 C25.6429316,58.1929915 27.2552059,61.2221947 29.8884625,63.184358 L37.4793794,68.8406615 C39.3861558,70.2612463 41.705152,71.0294985 44.0886225,71.0294985 L47.7603318,71.0294985 C44.0886225,71.0294985 36.7449959,63.7335819 36.7449959,54.6139444 C36.7449959,50.1536183 36.7449959,38.1983903 36.7449959,32.7264012 C36.7449959,30.9024737 38.5808506,27.2546187 42.2527678,27.2546187 Z" id="Path" fill="#000000" opacity="0.2" style="mix-blend-mode: overlay;"></path>
                                    <polygon id="Path" fill="#F2B031" points="51.6578171 105.663717 42.8525074 105.663717 43.9531711 89.2271386 50.5571534 89.2271386"></polygon>
                                    <path d="M51.6578171,85.7050147 L42.8525074,85.7050147 L42.8525074,89.0193251 C42.8525074,90.1068051 43.7339162,90.9882006 44.8214126,90.9882006 L49.6887124,90.9882006 C50.7762088,90.9882006 51.6576176,90.1068051 51.6576176,89.0193251 L51.6576176,85.7050147 L51.6578171,85.7050147 Z" id="Path" fill="#F2B031"></path>
                                    <g id="Group" stroke-width="1" fill="none" transform="translate(25.000000, 70.000000)">
                                        <path d="M5.18795005,0.467483328 L21.7203787,15.3106411 C21.7203787,15.3106411 17.0903807,17.6423343 11.3768534,22.3419011 C10.1982488,23.3112084 8.41538404,22.9185388 7.78325694,21.5312151 L0.0159824679,4.48473293 L2.47318445,0.808028682 C3.0846163,-0.10772353 4.36813141,-0.268388985 5.18795005,0.467483328 Z" id="Path" fill="#09506B"></path>
                                        <path d="M38.2526025,0.467483328 L21.7201738,15.3106411 C21.7201738,15.3106411 26.3501718,17.6423343 32.0636992,22.3419011 C33.2423037,23.3112084 35.0251685,22.9185388 35.6572956,21.5312151 L43.4245701,4.48473293 L40.9673681,0.808028682 C40.3557313,-0.10772353 39.0722162,-0.268388985 38.2526025,0.467483328 Z" id="Path" fill="#09506B"></path>
                                    </g>
                                    <path d="M58.1150442,7.59201889 L59.8401915,19.6934917 C67.7154105,21.2568745 68.8503593,33.524308 69.0138053,37.0281065 C69.043409,37.6640132 69.2479249,38.277985 69.5954561,38.8129082 L72.6002352,43.439528 C72.6002352,43.439528 71.5718181,35.790437 76.2806883,30.6531053 C76.2808968,30.6531053 77.8978445,0.285402904 58.1150442,7.59201889 Z" id="Path" fill="#785550"></path>
                                    <path d="M24.9717864,4.68065649 L27.6594413,6.50924169 C15.5075602,15.4448911 17.7787686,30.7712603 17.7787686,30.7712603 C21.4129491,34.3907068 21.4129491,43.439528 21.4129491,43.439528 L25.0471296,39.8200815 C25.0471296,39.8200815 23.6446332,29.364404 30.4984004,25.3420906 C36.8583192,21.6094724 42.4232225,23.5323674 48.1017582,23.5323674 C63.3200692,23.5323674 67.5790225,17.8202682 66.8408231,10.8640997 C66.4587545,7.26474527 60.9331697,-0.232884599 46.8526244,0.00555520266 C41.1701775,0.101710204 30.4988121,1.81527844 24.9717864,4.68065649 Z" id="Path" fill="#694B4B"></path>
                                    <path d="M23.901143,21.9183086 C23.901143,21.9183086 21.9736332,14.3292265 27.6427194,6.45722714 C15.5110598,15.405462 17.7784888,30.7534177 17.7784888,30.7534177 C21.4066218,34.377962 21.4066218,43.439528 21.4066218,43.439528 L25.0347548,39.8149837 C25.0347548,39.8149837 23.6345922,29.3445798 30.4769543,25.3166012 C36.8262897,21.5787258 42.3819326,23.5043291 48.0510188,23.5043291 C50.5219061,23.5043291 52.6750696,23.3390545 54.5929204,23.0557265 C42.8926333,23.4474582 35.9953992,14.5934606 23.901143,21.9183086 Z" id="Path" fill="#5A4146"></path>
                                    <path d="M24.3612904,52.8318584 L21.7196975,52.8318584 C20.7471301,52.8318584 19.9587021,52.0142088 19.9587021,51.0055949 L19.9587021,38.2215437 C19.9587021,37.2129299 20.7471301,36.3952802 21.7196975,36.3952802 L24.3612904,36.3952802 C24.8474744,36.3952802 25.2418879,36.804105 25.2418879,37.3085154 L25.2418879,51.9186232 C25.2416884,52.4232405 24.8474744,52.8318584 24.3612904,52.8318584 Z" id="Path" fill="#5B5D6E"></path>
                                    <path d="M54.5929204,63.3982301 L54.5929204,60.6587314 C66.8175324,60.6587314 69.4941665,53.737468 69.4941665,51.0707965 L72.2035398,51.0707965 C72.2033352,54.4996698 69.0397055,63.3982301 54.5929204,63.3982301 Z" id="Path" fill="#464655"></path>
                                    <path d="M54.0058997,63.9852507 L52.2448378,63.9852507 C51.2722336,63.9852507 50.4837758,63.196793 50.4837758,62.2241888 C50.4837758,61.2515846 51.2722336,60.4631268 52.2448378,60.4631268 L54.0058997,60.4631268 C54.9785039,60.4631268 55.7669617,61.2515846 55.7669617,62.2241888 C55.7669617,63.196793 54.9783044,63.9852507 54.0058997,63.9852507 Z" id="Path" fill="#5B5D6E"></path>
                                    <path d="M72.7905605,51.0707965 L75.3392822,49.7356689 C75.9358127,49.4232055 76.3126844,48.7844845 76.3126844,48.0855699 L76.3126844,41.1415688 C76.3126844,40.4428631 75.9358127,39.8039331 75.3392822,39.4914698 L72.7905605,38.1563422 L72.7905605,51.0707965 Z" id="Path" fill="#707487"></path>
                                    <path d="M69.5620134,52.8318584 L72.2036063,52.8318584 C73.1761738,52.8318584 73.9646018,52.0142088 73.9646018,51.0055949 L73.9646018,38.2215437 C73.9646018,37.2129299 73.1761738,36.3952802 72.2036063,36.3952802 L69.5620134,36.3952802 C69.0758294,36.3952802 68.6814159,36.804105 68.6814159,37.3085154 L68.6814159,51.9186232 C68.6816154,52.4232405 69.0758294,52.8318584 69.5620134,52.8318584 Z" id="Path" fill="#5B5D6E"></path>
                                    <path d="M70.3772763,101.554572 L57.5932251,101.554572 C56.5846113,101.554572 55.7669617,102.34303 55.7669617,103.315634 L55.7669617,105.076696 L72.2035398,105.076696 L72.2035398,103.315634 C72.2035398,102.34323 71.3856833,101.554572 70.3772763,101.554572 Z" id="Path" fill="#01435C"></path>
                                </g>
                            </g>
                        </g>
                    </g>
                </g>
            </g>
        </g>
    </g>
</svg>