<?xml version="1.0" encoding="UTF-8"?>
<svg width="1293px" height="396px" viewBox="0 0 1293 396" version="1.1" xmlns="http://www.w3.org/2000/svg" xmlns:xlink="http://www.w3.org/1999/xlink">
    <!-- Generator: Sketch 52.5 (67469) - http://www.bohemiancoding.com/sketch -->
    <title>Testimonial Rockets</title>
    <desc>Created with Sketch.</desc>
    <defs>
        <rect id="path-1" x="0" y="0" width="1440" height="443"></rect>
        <path d="M410.184422,319 C409.814555,319 409.437324,318.90884 409.093642,318.715422 C408.047868,318.130412 407.689457,316.835146 408.293355,315.821287 L412.919146,308.059204 C413.523044,307.047723 414.860129,306.698144 415.906722,307.28474 C416.952496,307.869749 417.310088,309.165015 416.707009,310.177289 L412.080399,317.939372 C411.675346,318.620298 410.940522,319 410.184422,319 Z M421.184422,325 C420.813737,325 420.437324,324.909629 420.093642,324.716204 C419.047868,324.131173 418.689457,322.836652 419.293355,321.821963 L423.919146,314.059595 C424.523044,313.048077 425.860129,312.697693 426.906722,313.285102 C427.952496,313.869341 428.310088,315.165447 427.707009,316.177758 L423.080399,323.940919 C422.675346,324.620284 421.940522,325 421.184422,325 Z M412.056483,328 C411.707548,328 411.353991,327.908229 411.029705,327.714314 C410.045292,327.124588 409.707911,325.820646 410.275604,324.800795 L420.159019,307.066713 C420.726713,306.04766 421.983034,305.696537 422.970528,306.286264 C423.954941,306.874394 424.292322,308.179133 423.723858,309.198187 L413.841213,326.933066 C413.459926,327.617755 412.768218,328 412.056483,328 Z M432.124061,318.653008 C431.809924,318.653008 431.495787,318.584173 431.20483,318.444903 C430.598138,318.155157 430.162503,317.596475 430.029814,316.935342 C429.916309,316.367056 428.317646,308.403844 426.744563,299.985203 C418.701693,302.958701 411.099255,305.876171 410.965767,305.927397 C410.325503,306.173921 409.607703,306.096282 409.032984,305.721693 C408.459064,305.346304 408.100165,304.717987 408.067392,304.032842 C408.029024,303.233239 407.19772,284.363733 412.618783,274.892562 C416.808078,267.574475 429.248867,260.83428 432.962559,258.942927 C436.669058,257.053975 449.109847,251.090171 453.557325,253.612241 C457.99681,256.18954 459.14385,269.954074 459.389245,274.111368 C459.635439,278.275866 460.114238,292.432598 455.924944,299.750685 C450.50388,309.221056 433.82184,318.037498 433.114432,318.408885 C432.804292,318.570566 432.464576,318.653008 432.124061,318.653008 Z M430.813957,298.491651 C431.888258,304.258556 432.995332,309.92301 433.645188,313.210266 C438.402008,310.437669 448.574295,303.991221 452.219245,297.623213 C457.753014,287.954342 454.582867,259.595256 451.416717,257.314106 C447.901258,255.756522 421.85985,267.351963 416.324482,277.020034 C412.696319,283.358427 412.267078,295.29404 412.278268,300.848038 C415.38287,299.665842 420.608098,297.688046 425.956422,295.714252 C425.08675,290.931842 424.308202,286.383151 423.900543,283.360828 C423.285857,278.797729 425.628697,274.857344 429.598175,273.778401 L429.931496,273.687955 C433.646787,272.679447 437.569904,274.959796 439.119807,278.854558 C440.827977,278.595227 442.566523,278.813737 444.102837,279.494881 C446.185095,280.416945 447.644673,282.081784 448.213797,284.182042 L448.304121,284.514209 C449.441569,288.715526 446.994018,293.035302 442.732783,294.351965 C439.979088,295.201993 435.526014,296.773985 430.813957,298.491651 Z M431.76676,277.719586 C431.531757,277.719586 431.292757,277.750002 431.04976,277.815635 L430.717238,277.906881 C428.556646,278.493576 427.863626,280.781929 428.1346,282.78934 C428.509486,285.569941 429.220891,289.752848 430.029814,294.2231 C434.536442,292.586276 438.763305,291.101528 441.473837,290.264306 C443.523322,289.631187 444.713526,287.598163 444.181971,285.636375 L444.091646,285.303407 C443.802288,284.235669 442.998161,283.68259 442.373884,283.406451 C441.423479,282.984639 440.258054,282.913403 439.176559,283.207151 L438.21976,283.467282 C437.672218,283.616157 437.089506,283.540919 436.597917,283.258377 C436.106329,282.976635 435.74663,282.51 435.598753,281.962524 L435.338971,281.003641 C434.876158,279.293979 433.441359,277.719586 431.76676,277.719586 Z" id="path-3"></path>
        <path d="M356.184422,96 C355.814555,96 355.437324,95.9088399 355.093642,95.715422 C354.047868,95.130412 353.689457,93.8351461 354.293355,92.8212873 L358.919146,85.0592039 C359.523044,84.0477233 360.860129,83.6981442 361.906722,84.2847395 C362.952496,84.8697495 363.310088,86.1650154 362.707009,87.1772888 L358.080399,94.9393722 C357.675346,95.6202984 356.940522,96 356.184422,96 Z M367.184422,102 C366.813737,102 366.437324,101.909629 366.093642,101.716204 C365.047868,101.131173 364.689457,99.8366521 365.293355,98.8219634 L369.919146,91.0595951 C370.523044,90.0480773 371.860129,89.6976926 372.906722,90.2851022 C373.952496,90.869341 374.310088,92.1654472 373.707009,93.1777577 L369.080399,100.940919 C368.675346,101.620284 367.940522,102 367.184422,102 Z M358.056483,105 C357.707548,105 357.353991,104.908229 357.029705,104.714314 C356.045292,104.124588 355.707911,102.820646 356.275604,101.800795 L366.159019,84.0667132 C366.726713,83.0476598 367.983034,82.6965373 368.970528,83.2862636 C369.954941,83.8743938 370.292322,85.1791332 369.723858,86.1981865 L359.841213,103.933066 C359.459926,104.617755 358.768218,105 358.056483,105 Z M378.124061,95.6530076 C377.809924,95.6530076 377.495787,95.5841729 377.20483,95.4449028 C376.598138,95.1551568 376.162503,94.5964754 376.029814,93.9353423 C375.916309,93.367056 374.317646,85.4038443 372.744563,76.9852032 C364.701693,79.9587012 357.099255,82.8761709 356.965767,82.9273967 C356.325503,83.1739209 355.607703,83.0962818 355.032984,82.7216931 C354.459064,82.346304 354.100165,81.7179875 354.067392,81.0328423 C354.029024,80.2332395 353.19772,61.3637334 358.618783,51.892562 C362.808078,44.5744754 375.248867,37.8342798 378.962559,35.942927 C382.669058,34.0539754 395.109847,28.0901709 399.557325,30.6122415 C403.99681,33.1895399 405.14385,46.9540741 405.389245,51.1113685 C405.635439,55.2758665 406.114238,69.4325983 401.924944,76.750685 C396.50388,86.221056 379.82184,95.0374975 379.114432,95.4088846 C378.804292,95.5705661 378.464576,95.6530076 378.124061,95.6530076 Z M376.813957,75.4916508 C377.888258,81.258556 378.995332,86.9230096 379.645188,90.2102657 C384.402008,87.4376689 394.574295,80.9912213 398.219245,74.6232133 C403.753014,64.9543423 400.582867,36.5952556 397.416717,34.3141064 C393.901258,32.7565217 367.85985,44.3519633 362.324482,54.0200338 C358.696319,60.358427 358.267078,72.2940399 358.278268,77.8480379 C361.38287,76.6658423 366.608098,74.6880459 371.956422,72.7142516 C371.08675,67.9318423 370.308202,63.3831508 369.900543,60.3608282 C369.285857,55.7977294 371.628697,51.8573443 375.598175,50.7784008 L375.931496,50.6879552 C379.646787,49.6794471 383.569904,51.9597959 385.119807,55.854558 C386.827977,55.5952274 388.566523,55.8137375 390.102837,56.4948806 C392.185095,57.4169451 393.644673,59.0817838 394.213797,61.1820419 L394.304121,61.5142092 C395.441569,65.7155258 392.994018,70.035302 388.732783,71.3519653 C385.979088,72.2019935 381.526014,73.7739854 376.813957,75.4916508 Z M377.76676,54.7195862 C377.531757,54.7195862 377.292757,54.7500016 377.04976,54.8156346 L376.717238,54.9068806 C374.556646,55.4935762 373.863626,57.781929 374.1346,59.7893403 C374.509486,62.5699411 375.220891,66.7528483 376.029814,71.2231004 C380.536442,69.5862758 384.763305,68.1015278 387.473837,67.264306 C389.523322,66.631187 390.713526,64.5981629 390.181971,62.6363745 L390.091646,62.3034068 C389.802288,61.2356689 388.998161,60.6825903 388.373884,60.4064512 C387.423479,59.9846387 386.258054,59.9134028 385.176559,60.2071508 L384.21976,60.4672818 C383.672218,60.6161568 383.089506,60.5409189 382.597917,60.2583766 C382.106329,59.9766346 381.74663,59.5099995 381.598753,58.9625237 L381.338971,58.0036407 C380.876158,56.2939794 379.441359,54.7195862 377.76676,54.7195862 Z" id="path-5"></path>
    </defs>
    <g id="Desktop" stroke="none" stroke-width="1" fill="none" fill-rule="evenodd">
        <g id="4-Pricing" transform="translate(-94.000000, -2430.000000)">
            <g id="Sections-Stacked">
                <g id="Bottom-Sections" transform="translate(0.000000, 2428.000000)">
                    <g id="Testimonial-Section">
                        <g id="Testimonial-Rockets">
                            <mask id="mask-2" fill="white">
                                <use xlink:href="#path-1"></use>
                            </mask>
                            <g id="Mask"></g>
                            <g id="Rocket-Right" mask="url(#mask-2)">
                                <g transform="translate(1232.000000, 164.500000) scale(-1, 1) rotate(-64.000000) translate(-1232.000000, -164.500000) translate(993.000000, -34.000000)">
                                    <path d="M101.166819,32 C68.5981574,78.0817841 70.3853777,170.161599 186.383035,225.082747 C263.714807,261.696846 303.253795,308.33593 305,365" id="Path-4" stroke="#F04C23" stroke-width="3.2" fill="none" stroke-dasharray="10.4,19.2" transform="translate(194.000000, 198.500000) rotate(-42.000000) translate(-194.000000, -198.500000) "></path>
                                    <mask id="mask-4" fill="white">
                                        <use xlink:href="#path-3"></use>
                                    </mask>
                                    <use id="Fill-27" stroke="none" fill="#F04C23" fill-rule="evenodd" transform="translate(434.000000, 290.500000) rotate(-254.000000) translate(-434.000000, -290.500000) " xlink:href="#path-3"></use>
                                </g>
                            </g>
                            <g id="Rocket-Left" mask="url(#mask-2)">
                                <g transform="translate(221.000000, 202.500000) scale(1, -1) rotate(-97.000000) translate(-221.000000, -202.500000) translate(9.000000, 82.000000)">
                                    <path d="M79.1668186,-46 C46.5981574,0.081784143 48.3853777,92.1615989 164.383035,147.082747 C241.714807,183.696846 281.253795,230.33593 283,287" id="Path-4" stroke="#F04C23" stroke-width="3.2" fill="none" stroke-dasharray="10.4,19.2" transform="translate(172.000000, 120.500000) scale(-1, -1) rotate(-93.000000) translate(-172.000000, -120.500000) "></path>
                                    <mask id="mask-6" fill="white">
                                        <use xlink:href="#path-5"></use>
                                    </mask>
                                    <use id="Fill-27" stroke="none" fill="#F04C23" fill-rule="evenodd" transform="translate(380.000000, 67.500000) rotate(-254.000000) translate(-380.000000, -67.500000) " xlink:href="#path-5"></use>
                                </g>
                            </g>
                        </g>
                    </g>
                </g>
            </g>
        </g>
    </g>
</svg>