<svg xmlns="http://www.w3.org/2000/svg" width="30" height="30"><defs><linearGradient id="a" x1="0%" x2="95.257%" y1="100%" y2="0%"><stop offset="0%" stop-color="#F04C23"/><stop offset="100%" stop-color="#F2B031"/></linearGradient></defs><path fill="url(#a)" fill-rule="evenodd" d="M4.4 4.4C7.33 1.47 10.86 0 15 0c4.13 0 7.67 1.47 10.6 4.4C28.53 7.33 30 10.86 30 15c0 4.13-1.47 7.67-4.4 10.6C22.67 28.53 19.14 30 15 30c-4.13 0-7.67-1.47-10.6-4.4C1.47 22.67 0 19.14 0 15c0-4.13 1.47-7.67 4.4-10.6zm18.28 12.1v-3H16.5V7.3h-3v6.17H7.3v3h6.17v6.18h3V16.5h6.18z"/></svg>