<svg xmlns="http://www.w3.org/2000/svg" width="62" height="63" xmlns:xlink="http://www.w3.org/1999/xlink"><title>Global/Icons/ipad</title><desc>Created with Sketch.</desc><defs><linearGradient id="b" x1="0%" x2="95.257%" y1="100%" y2="0%"><stop stop-color="#F04C23" offset="0%"/><stop stop-color="#F2B031" offset="100%"/></linearGradient><path id="a" d="M47.28 11.46c0-2.88-2.3-5.2-5.14-5.2h-2.57c-2.84 0-5.14 2.32-5.14 5.2v46.87h12.85V11.46zm17.98 10.4c0-2.86-2.3-5.2-5.13-5.2h-2.57c-2.84 0-5.14 2.34-5.14 5.2 0 .02 0 .02 0 .02v36.45h12.84V21.88zM29.3 32.3c0-2.88-2.3-5.22-5.15-5.22h-2.57c-2.83 0-5.14 2.34-5.14 5.2v26.05H29.3V32.3zm35.96 31.24H11.3V8.84c0-1.42-1.14-2.6-2.56-2.6-1.42 0-2.57 1.18-2.57 2.6v59.9h59.1c1.4 0 2.56-1.16 2.56-2.6 0-1.43-1.15-2.6-2.57-2.6z"/></defs><g fill="none"><g><g><g id="Benefits"><g><g><g><g transform="translate(-6 -6)"><path d="M0 0h74v75H0z"/><mask><use xlink:href="#a"/></mask><use fill="url(#b)" xlink:href="#a"/></g></g></g></g></g></g></g></g></svg>