<svg height="75" viewBox="0 0 74 75" width="74" xmlns="http://www.w3.org/2000/svg" xmlns:xlink="http://www.w3.org/1999/xlink"><linearGradient id="a" x1="77.540525%" x2="1.590398%" y1="0%" y2="100%"><stop offset="0" stop-color="#f2b031"/><stop offset="1" stop-color="#f04c23"/></linearGradient><path d="m70.9428283 60.2575758c2.223761 2.3195643 2.9224784 5.7337129 1.7924213 8.7583236-1.130057 3.0246108-3.8847767 5.113376-7.066689 5.3583146s-6.2162977-1.3981905-7.7841162-4.2151231l-17.2666666-29.5833333c-2.779105 1.6929865-5.7315239 3.0748372-8.8052525 4.1212121.3124026 2.2769498-.9379666 4.4788464-3.0374393 5.348922-2.0994727.8700755-4.5138079.1869268-5.864985-1.6595281l-13.34989898-18.0833333c-1.35079461-1.8313939-1.31295636-4.3557301.09210514-6.1446914 1.40506154-1.7889613 3.82381864-2.3924271 5.88769284-1.468945 5.4898249-7.9485022 13.3491184-13.90404115 22.4242424-16.9924242-.2972024-2.26946287.9550776-4.4560705 3.0468589-5.32012392s4.4953869-.18758478 5.8480906 1.64588149l13.3573738 18.08333333c1.3507946 1.8313939 1.3129563 4.3557301-.0921052 6.1446914s-3.8238186 2.3924271-5.8876928 1.468945c-1.8617691 2.6949466-4.0071748 5.1767066-6.3983839 7.4015151zm-28.8375758 13.6363636c2.0269408 0 3.670101-1.6653651 3.670101-3.719697v-2.2727272c0-2.054332-1.6431602-3.719697-3.670101-3.719697h-1.7416161l-.1569697-.4318182c-1.2615777-3.4279448-4.4927634-5.6997967-8.1026263-5.6969723h-18.2981818c-3.6090277.0015187-6.83698723 2.2762188-8.09515153 5.7045481l-.16444444.4318181h-1.80888889c-2.02694082 0-3.67016962 1.6653651-3.67016962 3.719697v2.2727273c-.00590249.9904569.37813015 1.9424255 1.06705585 2.6449272s1.62584472 1.097497 2.60311377 1.097497z" fill="url(#a)" fill-rule="evenodd" transform="translate(.5)"/></svg>