<?xml version="1.0" encoding="UTF-8"?>
<svg width="46px" height="46px" viewBox="0 0 46 46" version="1.1" xmlns="http://www.w3.org/2000/svg" xmlns:xlink="http://www.w3.org/1999/xlink">
    <!-- Generator: Sketch 52.5 (67469) - http://www.bohemiancoding.com/sketch -->
    <title>Icon/Chat Support</title>
    <desc>Created with Sketch.</desc>
    <defs>
        <linearGradient x1="78.4453125%" y1="0%" x2="0%" y2="100%" id="linearGradient-1">
            <stop stop-color="#F2B031" offset="0%"></stop>
            <stop stop-color="#F04C23" offset="100%"></stop>
        </linearGradient>
    </defs>
    <g id="Desktop" stroke="none" stroke-width="1" fill="none" fill-rule="evenodd">
        <g id="3-Features" transform="translate(-1060.000000, -564.000000)" fill="url(#linearGradient-1)">
            <g id="Hero">
                <g id="Hero-Content" transform="translate(204.000000, 184.000000)">
                    <g id="Feature-Icons-Group" transform="translate(0.000000, 204.000000)">
                        <g id="Feature-Icons" transform="translate(64.000000, 48.000000)">
                            <g id="Feature-Icons-Row-2" transform="translate(0.000000, 124.000000)">
                                <g id="Components/Features/Icons-Copy" transform="translate(724.000000, 0.000000)">
                                    <g id="Icon/Chat-Support" transform="translate(64.000000, 0.000000)">
                                        <path d="M27,49.5 C14.5735931,49.5 4.5,39.4264069 4.5,27 C4.5,14.5735931 14.5735931,4.5 27,4.5 C39.4264069,4.5 49.5,14.5735931 49.5,27 C49.5,39.4264069 39.4264069,49.5 27,49.5 Z M38.1739069,40.2954545 C38.2040374,39.7090025 38.2463949,39.2615424 38.2468315,38.8142954 C38.2511983,32.4223733 38.2505433,26.0308775 38.2479232,19.6391685 C38.2479232,19.2490532 38.2455215,18.8568061 38.2044741,18.4696753 C38.1055673,17.5404334 37.700115,16.7683035 36.8876821,16.2415413 C36.2573424,15.8324531 35.5435979,15.7520851 34.8010329,15.7535774 C30.5093957,15.7623177 26.2179768,15.7576278 21.9263396,15.7578409 C20.8717706,15.7578409 19.8161099,15.7350309 18.7624143,15.7672208 C17.3329603,15.8111354 16.2517541,16.5996799 15.9349468,17.8484753 C15.8054728,18.3586097 15.7648621,18.9007207 15.760932,19.4287621 C15.74281,21.7368377 15.7526352,24.0451266 15.7528535,26.3532023 C15.7532902,29.0164321 15.7585303,31.6796619 15.7530718,34.3428918 C15.7489234,36.4522858 17.1144047,37.6705967 19.1453779,37.6177286 C22.7798199,37.5230777 26.4186287,37.5780776 30.0552542,37.6053643 C30.6205293,37.6094147 31.21266,37.7245307 31.7438745,37.9166039 C33.4475602,38.5318349 35.1265737,39.2110192 36.8189058,39.8556688 C37.2136596,40.0061723 37.6234787,40.1183038 38.1739069,40.2954545 Z M27.3977251,34.3928571 C24.2656281,34.3396149 21.7776137,33.6637971 19.4694648,32.0305982 C19.0348521,31.7229035 18.5733716,31.4037764 18.2457328,30.9415811 C18.0457165,30.6593643 17.938245,30.0269897 18.0375068,29.6709523 C18.191002,29.1205643 18.6288487,29.1845857 18.9923113,29.440018 C19.2104883,29.5935387 19.4027926,29.8104275 19.6207209,29.9632949 C24.5639112,33.4397222 29.4964042,33.4469083 34.4144681,29.8708559 C34.4866133,29.8182669 34.5488074,29.7431397 34.61946,29.687611 C35.2844397,29.1656406 35.7095989,29.1555147 35.905386,29.6974102 C36.1899864,30.4865719 35.7817441,30.9098971 35.3538484,31.2845529 C33.746503,32.6940036 31.9724773,33.5739712 30.0772974,33.9953365 C29.0212409,34.2305172 27.9457798,34.3147902 27.3977251,34.3928571 Z" id="Combined-Shape"></path>
                                    </g>
                                </g>
                            </g>
                        </g>
                    </g>
                </g>
            </g>
        </g>
    </g>
</svg>