<?xml version="1.0" encoding="UTF-8"?>
<svg width="46px" height="39px" viewBox="0 0 46 39" version="1.1" xmlns="http://www.w3.org/2000/svg" xmlns:xlink="http://www.w3.org/1999/xlink">
    <!-- Generator: Sketch 52.5 (67469) - http://www.bohemiancoding.com/sketch -->
    <title>Icon/Checklist</title>
    <desc>Created with Sketch.</desc>
    <defs>
        <linearGradient x1="78.4453125%" y1="0%" x2="0%" y2="100%" id="linearGradient-1">
            <stop stop-color="#F2B031" offset="0%"></stop>
            <stop stop-color="#F04C23" offset="100%"></stop>
        </linearGradient>
        <path d="M7.87500015,24.75 L7.875,24.75 C6.01103812,24.7500001 4.5,26.2610398 4.5,28.125 C4.50000008,29.9889619 6.01103981,31.5 7.875,31.5 C9.73896188,31.4999999 11.25,29.9889602 11.25,28.125 L11.25,28.1250001 C11.25,26.2610383 9.73896188,24.7500001 7.875,24.7500001 L7.87500015,24.75 Z M7.87500015,9 L7.875,9 C6.01103812,9.00000008 4.5,10.5110398 4.5,12.375 C4.50000008,14.2389619 6.01103981,15.75 7.875,15.75 C9.73896188,15.7499999 11.25,14.2389602 11.25,12.375 L11.25,12.3750001 C11.25,10.5110383 9.73896188,9.00000015 7.875,9.00000015 L7.87500015,9 Z M7.87500015,40.5 L7.875,40.5 C6.01103812,40.5000001 4.5,42.0110398 4.5,43.875 C4.50000008,45.7389619 6.01103981,47.25 7.875,47.25 C9.73896188,47.2499999 11.25,45.7389602 11.25,43.875 L11.25,43.8750001 C11.25,42.0110383 9.73896188,40.5000001 7.875,40.5000001 L7.87500015,40.5 Z M23.9062503,15.75 L45.8437502,15.75 L45.84375,15.75 C47.863042,15.7500001 49.5,14.2389619 49.5,12.375 C49.5000001,10.5110381 47.863042,9 45.84375,9 L23.9062501,9 L23.90625,9 C21.886958,9.00000008 20.25,10.5110398 20.25,12.375 C20.2500001,14.2389619 21.8869598,15.75 23.90625,15.75 L23.9062503,15.75 Z M45.8437503,24.75 L23.9062502,24.75 L23.90625,24.75 C21.886958,24.7500001 20.25,26.2610398 20.25,28.125 C20.2500001,29.9889619 21.8869598,31.5 23.90625,31.5 L45.8437501,31.5 L45.84375,31.5 C47.863042,31.5000001 49.5,29.9889619 49.5,28.125 C49.5000001,26.2610381 47.863042,24.75 45.84375,24.75 L45.8437503,24.75 Z M45.8437503,40.5 L23.9062502,40.5 L23.90625,40.5 C21.886958,40.5000001 20.25,42.0110398 20.25,43.875 C20.2500001,45.7389619 21.8869598,47.25 23.90625,47.25 L45.8437501,47.25 L45.84375,47.25 C47.863042,47.2500001 49.5,45.7389619 49.5,43.875 C49.5000001,42.0110381 47.863042,40.5 45.84375,40.5 L45.8437503,40.5 Z" id="path-2"></path>
    </defs>
    <g id="Desktop" stroke="none" stroke-width="1" fill="none" fill-rule="evenodd">
        <g id="3-Features" transform="translate(-517.000000, -445.000000)">
            <g id="Hero">
                <g id="Hero-Content" transform="translate(204.000000, 184.000000)">
                    <g id="Feature-Icons-Group" transform="translate(0.000000, 204.000000)">
                        <g id="Feature-Icons" transform="translate(64.000000, 48.000000)">
                            <g id="Feature-Icons-Row-1">
                                <g id="Components/Features/Icons-Copy" transform="translate(181.000000, 0.000000)">
                                    <g id="Icon/List" transform="translate(64.000000, 0.000000)">
                                        <rect id="24pt-Bounding-Box" x="0" y="0" width="54" height="54"></rect>
                                        <mask id="mask-3" fill="white">
                                            <use xlink:href="#path-2"></use>
                                        </mask>
                                        <use id="Fill" fill="url(#linearGradient-1)" fill-rule="evenodd" xlink:href="#path-2"></use>
                                    </g>
                                </g>
                            </g>
                        </g>
                    </g>
                </g>
            </g>
        </g>
    </g>
</svg>