<?xml version="1.0" encoding="UTF-8"?>
<svg width="47px" height="36px" viewBox="0 0 47 36" version="1.1" xmlns="http://www.w3.org/2000/svg" xmlns:xlink="http://www.w3.org/1999/xlink">
    <!-- Generator: sketchtool 52.5 (67469) - http://www.bohemiancoding.com/sketch -->
    <title>A04CF37F-6662-4828-AFE0-1B338837A4C8</title>
    <desc>Created with sketchtool.</desc>
    <defs>
        <linearGradient x1="78.4453125%" y1="0%" x2="0%" y2="100%" id="linearGradient-1">
            <stop stop-color="#F2B031" offset="0%"></stop>
            <stop stop-color="#F04C23" offset="100%"></stop>
        </linearGradient>
    </defs>
    <g id="Page-1" stroke="none" stroke-width="1" fill="none" fill-rule="evenodd">
        <g id="2-Features" transform="translate(-336.000000, -442.000000)" fill="url(#linearGradient-1)">
            <g id="Hero" transform="translate(-2656.000000, -6250.000000)">
                <g id="Hero-Content" transform="translate(2860.000000, 6434.000000)">
                    <g id="Feature-Icons-Group" transform="translate(0.000000, 201.000000)">
                        <g id="Feature-Icons" transform="translate(64.000000, 48.000000)">
                            <g id="Stacked-Group">
                                <g id="Components/Features/Icons">
                                    <g id="Icon/Dashboard" transform="translate(64.000000, 0.000000)">
                                        <path d="M48.0393076,22.1996819 C49.3711886,25.1031881 50.0465587,28.2027128 50.0465587,31.4121094 C50.0465587,35.8358746 48.7123648,40.1382992 46.1880891,43.8539818 C45.8485359,44.3539644 45.2863206,44.6319271 44.7080928,44.6319271 C44.4504701,44.6319271 44.1899118,44.5768599 43.9441205,44.4617352 L40.2078793,42.7107891 C39.3207,42.295027 38.9439623,41.2501499 39.3664244,40.3771282 C39.7889755,39.5039314 40.8506907,39.1333437 41.7376921,39.5490183 L44.0307657,40.6236614 C45.6425979,37.7977221 46.4882338,34.6420795 46.4882338,31.4121094 C46.4882338,28.7028706 45.9189908,26.0880953 44.7961614,23.6404478 C44.3918467,22.7591091 44.7901122,21.7221113 45.6856536,21.3242088 C46.5815509,20.9261312 47.6350819,21.3183432 48.0393076,22.1996819 Z M12.7046966,39.5561096 C13.5878728,39.1322931 14.6530574,39.4930756 15.0838816,40.3621576 C15.5147058,41.2313272 15.1480204,42.2795311 14.2648441,42.7035227 L10.6175611,44.4544687 C10.3674998,44.5744961 10.1013371,44.6318396 9.83855485,44.6318396 C9.26050497,44.6318396 8.69837859,44.3542271 8.35838065,43.8538942 C5.83419392,40.1382992 4.5,35.8358746 4.5,31.4121094 C4.5,25.4256248 6.86886584,19.7974714 11.17008,15.5642967 C15.4714721,11.3312096 21.1903229,9 27.2732794,9 C30.5343952,9 33.6838685,9.66465912 36.6342536,10.9753298 C37.529884,11.3732323 37.9281495,12.4102301 37.5238348,13.2916563 C37.1195202,14.1728199 36.0656333,14.5649443 35.1702698,14.1670418 C33.2232434,13.3020744 31.1722249,12.7708374 29.0525308,12.5809473 L29.0525308,15.2157709 C29.0525308,16.1828184 28.2559997,16.966717 27.2733683,16.966717 C26.2907369,16.966717 25.4942059,16.1828184 25.4942059,15.2157709 L25.4942059,12.5822605 C19.3117053,13.1434387 13.9682578,16.5993685 10.8798986,21.5562967 L13.3646769,22.7292555 C14.2506998,23.1474689 14.6243239,24.1933966 14.1994599,25.0652802 C13.8935329,25.6929943 13.2570376,26.0593798 12.5940327,26.0593798 C12.3359652,26.0593798 12.0739835,26.0038748 11.8257903,25.8867365 L9.3090761,24.6987196 C8.50106947,26.7859348 8.0583249,29.0491201 8.0583249,31.4121094 C8.0583249,34.6372644 8.90120311,37.7878292 10.5083205,40.6105293 L12.7046966,39.5561096 Z M43.2095043,15.728623 C43.8139747,16.323682 43.9030218,17.2576366 43.4216694,17.9530249 C41.6070127,20.5729654 32.482578,33.7141657 31.0475946,35.1264788 C30.0069625,36.150432 28.6401209,36.6624962 27.2733683,36.6624962 C25.9066157,36.6624962 24.5396852,36.150432 23.499142,35.1264788 C21.4180557,33.0783096 21.4180557,29.7459091 23.499142,27.69774 C24.9342145,26.2855145 38.2871845,17.3057001 40.9493453,15.5199102 C41.6560286,15.0460167 42.6049449,15.1337391 43.2095043,15.728623 Z M28.5313251,32.6502033 C29.0821538,32.1016319 31.785947,28.3708036 35.0281147,23.7803484 C30.3636845,26.9711849 26.5725562,29.6320976 26.0149667,30.1743656 C25.3215381,30.8570595 25.3216271,31.967597 26.0153225,32.6502033 C26.708929,33.3329847 27.8377186,33.3329847 28.5313251,32.6502033 Z" id="Path-2"></path>
                                    </g>
                                </g>
                            </g>
                        </g>
                    </g>
                </g>
            </g>
        </g>
    </g>
</svg>