<svg height="20" viewBox="0 0 20 20" width="20" xmlns="http://www.w3.org/2000/svg" xmlns:xlink="http://www.w3.org/1999/xlink"><linearGradient id="a" x1="78.445313%" x2="0%" y1=".002821%" y2="99.997179%"><stop offset="0" stop-color="#f2b031"/><stop offset="1" stop-color="#f04c23"/></linearGradient><path d="m19.559 14.5672c-.5958-.6062-1.5692-.6152-2.175-.0196-.6296.6148-2.8046 2.3698-4.3698 2.3698-.0186.0014-2.3088.09-2.9682-.1048-.4046-.1196-.5496-.333-.6784-.4792h4.0346c.85 0 1.5386-.6888 1.5386-1.5386s-.6886-1.5386-1.5386-1.5386h-2.6016c-3.1136-2.3472-6.8278-.0722-6.8278-.0722h-3.9728v5.4268h5.8818c.762.417 1.6252.8892 2.58 1.0766 1.7164.337 3.6792.3116 4.2784.3116 3.0946-.0164 6.4618-2.9232 6.7992-3.255.6062-.596.6152-1.571.0196-2.1768zm-3.9804 1.1758 1.7414-1.407s-.3084-.4836-.818-.3568c-.5098.1266-.9234 1.7638-.9234 1.7638zm.7632-15.743c-1.2936 0-2.43.6712-3.0808 1.6844-.6504-1.0132-1.787-1.6844-3.0806-1.6844-2.0204 0-3.6582 1.6378-3.6582 3.6582 0 4.3304 6.7386 8.3342 6.7386 8.3342s6.7392-4.0038 6.7392-8.3342c0-2.0204-1.6378-3.6582-3.6582-3.6582z" fill="url(#a)" fill-rule="evenodd"/></svg>