<svg height="74" viewBox="0 0 74 74" width="74" xmlns="http://www.w3.org/2000/svg" xmlns:xlink="http://www.w3.org/1999/xlink"><linearGradient id="a"><stop offset="0" stop-color="#f2b031"/><stop offset="1" stop-color="#f04c23"/></linearGradient><linearGradient id="b" x1="69.332664%" x2="16.017839%" xlink:href="#a" y1="0%" y2="100%"/><linearGradient id="c" x1="78.445313%" x2="0%" xlink:href="#a" y1="0%" y2="100%"/><linearGradient id="d" x1="59.932351%" x2="32.541322%" xlink:href="#a" y1="0%" y2="100%"/><linearGradient id="e" x1="59.288265%" x2="33.673469%" xlink:href="#a" y1="0%" y2="100%"/><linearGradient id="f" x1="78.445313%" x2="0%" xlink:href="#a" y1="38.102715%" y2="61.897285%"/><linearGradient id="g" x1="54.807609%" x2="41.549383%" xlink:href="#a" y1="0%" y2="100%"/><g fill="none" fill-rule="evenodd" transform="translate(.307692 .37037)"><path d="m19.390625 36.5c0 3.0796875 2.3953125 5.5890625 5.3609375 5.5890625h.7984375v4.334375l1.4828125-.9125c4.5625-2.6234375 10.1515625 1.36875 9.0109375 6.615625-.1140625.7984375-.45625 1.4828125-.9125 2.053125 6.3875-.45625 7.4140625 0 9.4671875-.9125v-11.178125h1.0265625c2.965625 0 5.3609375-2.509375 5.3609375-5.5890625v-10.3796875c0-5.246875-3.65-9.58125-8.440625-10.265625-1.9390625 1.9390625-4.5625 3.19375-7.528125 3.19375-2.8515625 0-5.5890625-1.140625-7.528125-3.0796875-4.5625.9125-7.984375 5.1328125-7.984375 10.265625v10.265625z" fill="url(#b)"/><path d="m34.903125 16.7671875c4.5625 0 8.3265625-3.7640625 8.3265625-8.3265625s-3.7640625-8.3265625-8.3265625-8.3265625-8.3265625 3.7640625-8.3265625 8.3265625 3.7640625 8.3265625 8.3265625 8.3265625z" fill="url(#c)"/><path d="m62.9625 22.128125v2.509375c.7984375-.1140625 1.4828125-.45625 1.4828125-1.2546875-.1140625-.684375-.684375-.9125-1.4828125-1.2546875z" fill="url(#d)"/><path d="m60.68125 18.934375c0 .7984375.5703125 1.0265625 1.36875 1.2546875v-2.3953125c-.684375.1140625-1.36875.45625-1.36875 1.140625z" fill="url(#e)"/><path d="m62.3921875 11.0640625c-5.703125 0-10.3796875 4.6765625-10.3796875 10.3796875s4.6765625 10.3796875 10.3796875 10.3796875 10.3796875-4.6765625 10.3796875-10.3796875-4.6765625-10.3796875-10.3796875-10.3796875zm.5703125 15.1703125v1.0265625h-.9125v-1.0265625c-1.2546875-.1140625-2.3953125-.684375-3.421875-1.4828125l1.0265625-1.2546875c.7984375.684375 1.596875 1.140625 2.3953125 1.2546875v-2.7375c-1.825-.45625-3.0796875-1.0265625-3.0796875-2.8515625 0-1.7109375 1.36875-2.7375 3.0796875-2.8515625v-.684375h.9125v.684375c1.0265625.1140625 1.9390625.45625 2.8515625 1.0265625l-.9125 1.2546875c-.5703125-.45625-1.2546875-.684375-2.053125-.7984375v2.6234375c1.825.45625 3.0796875 1.0265625 3.0796875 2.8515625.1140625 1.825-1.2546875 2.8515625-2.965625 2.965625z" fill="url(#c)"/><path d="m10.95 7.984375c-.684375.1140625-1.36875.45625-1.36875 1.140625 0 .7984375.5703125 1.0265625 1.36875 1.2546875z" fill="url(#e)"/><path d="m13.3453125 13.6875c0-.7984375-.5703125-1.0265625-1.4828125-1.36875v2.509375c.7984375 0 1.4828125-.3421875 1.4828125-1.140625z" fill="url(#d)"/><path d="m11.2921875 22.0140625c5.703125 0 10.3796875-4.6765625 10.3796875-10.3796875s-4.5625-10.3796875-10.3796875-10.3796875-10.3796875 4.6765625-10.3796875 10.3796875 4.6765625 10.3796875 10.3796875 10.3796875zm-3.421875-12.6609375c0-1.7109375 1.36875-2.7375 3.0796875-2.8515625v-.684375h.9125v.684375c1.0265625.1140625 2.053125.45625 2.965625 1.0265625l-.9125 1.2546875c-.684375-.3421875-1.36875-.684375-2.053125-.7984375v2.6234375c1.825.45625 3.0796875 1.0265625 3.0796875 2.8515625 0 1.7109375-1.36875 2.7375-3.19375 2.8515625v1.0265625h-.9125v-1.0265625c-1.2546875-.1140625-2.3953125-.684375-3.421875-1.4828125l1.0265625-1.2546875c.7984375.684375 1.596875 1.140625 2.3953125 1.2546875v-2.7375c-1.7109375-.3421875-2.965625-1.0265625-2.965625-2.7375z" fill="url(#c)"/><path d="m53.8375 49.959375-6.5015625 4.4484375c-3.7640625 2.6234375-6.3875 1.4828125-19.7328125 2.509375l4.4484375-2.6234375c1.9390625-1.140625 2.509375-3.65 1.140625-5.5890625-1.140625-1.596875-3.3078125-2.053125-5.01875-1.140625l-9.125 5.246875c-2.509375 1.36875-5.3609375 2.1671875-8.2125 2.1671875v15.740625c9.125-.228125 31.5953125-.3421875 41.6328125-9.809375l5.703125-5.475c1.36875-1.36875 1.4828125-3.5359375.1140625-5.01875-1.0265625-1.2546875-3.0796875-1.4828125-4.4484375-.45625z" fill="url(#f)"/><path d="m7.528125 52.46875h-6.159375c-.684375 0-1.140625.5703125-1.140625 1.140625v18.25c0 .684375.45625 1.140625 1.140625 1.140625h6.159375c.5703125 0 1.140625-.45625 1.140625-1.140625v-18.25c0-.684375-.5703125-1.140625-1.140625-1.140625z" fill="url(#g)"/></g></svg>