<svg xmlns="http://www.w3.org/2000/svg" width="46" height="46"><title>Icon/Event Mgmt</title><desc>Created with Sketch.</desc><defs><linearGradient id="a" x1="78.445%" x2="0%" y1="0%" y2="100%"><stop stop-color="#F2B031" offset="0%"/><stop stop-color="#F04C23" offset="100%"/></linearGradient></defs><g fill="none"><g fill="url(#a)" transform="translate(-698 -440)"><g><g><g><g><g><g><g><g><path d="M715.95 469.43l-.7 4.1c-.1.55.14 1.12.6 1.45.47.33 1.08.38 1.6.12l3.7-1.93 3.7 1.93c.23.1.47.17.7.17.32 0 .63-.1.9-.3.45-.32.7-.9.6-1.45l-.7-4.1 2.98-2.9c.4-.4.56-1 .38-1.53-.16-.55-.63-.94-1.2-1.02l-4.14-.6-1.86-3.73c-.26-.5-.78-.83-1.35-.83-.57 0-1.1.32-1.35.83l-1.87 3.72-4.14.6c-.57.1-1.04.48-1.22 1.02-.17.53-.03 1.12.38 1.52l3 2.9z"/><path d="M738.94 445.28h-4.74v-2.6c0-1.2-.98-2.18-2.18-2.18h-.35c-1.2 0-2.2.97-2.2 2.17v2.6h-16.7v-2.6c0-1.2-1-2.17-2.2-2.17h-.35c-1.2 0-2.18.97-2.18 2.17v2.6h-4.7c-2.47 0-4.5 2-4.5 4.47v31.23c0 2.46 2.03 4.46 4.5 4.46h35.6c2.48 0 4.5-2 4.5-4.46v-31.23c0-2.46-2.02-4.46-4.5-4.46zm-.58 35.1h-34.42v-24.3h34.42v24.3z"/></g></g></g></g></g></g></g></g></g></g></svg>