<?xml version="1.0" encoding="UTF-8"?>
<svg width="46px" height="46px" viewBox="0 0 46 46" version="1.1" xmlns="http://www.w3.org/2000/svg" xmlns:xlink="http://www.w3.org/1999/xlink">
    <!-- Generator: Sketch 52.5 (67469) - http://www.bohemiancoding.com/sketch -->
    <title>Icon/Fundraising</title>
    <desc>Created with Sketch.</desc>
    <defs>
        <linearGradient x1="78.4453125%" y1="0%" x2="0%" y2="100%" id="linearGradient-1">
            <stop stop-color="#F2B031" offset="0%"></stop>
            <stop stop-color="#F04C23" offset="100%"></stop>
        </linearGradient>
    </defs>
    <g id="Desktop" stroke="none" stroke-width="1" fill="none" fill-rule="evenodd">
        <g id="3-Features" transform="translate(-879.000000, -440.000000)" fill="url(#linearGradient-1)">
            <g id="Hero">
                <g id="Hero-Content" transform="translate(204.000000, 184.000000)">
                    <g id="Feature-Icons-Group" transform="translate(0.000000, 204.000000)">
                        <g id="Feature-Icons" transform="translate(64.000000, 48.000000)">
                            <g id="Feature-Icons-Row-1">
                                <g id="Components/Features/Icons-Copy" transform="translate(543.000000, 0.000000)">
                                    <g id="Icon/Fundraising" transform="translate(64.000000, 0.000000)">
                                        <path d="M27,49.5 C14.5735931,49.5 4.5,39.4264069 4.5,27 C4.5,14.5735931 14.5735931,4.5 27,4.5 C39.4264069,4.5 49.5,14.5735931 49.5,27 C49.5,39.4264069 39.4264069,49.5 27,49.5 Z M30.5787633,25.8564534 C29.5689844,25.3143039 28.49543,24.9012377 27.4325048,24.4726814 C26.8160083,24.2248417 26.2260848,23.9356953 25.7052515,23.5329557 C24.6795287,22.7378032 24.8761699,21.4469711 26.0772753,20.9358017 C26.4174113,20.7912285 26.7734913,20.7447585 27.1348858,20.7241052 C28.5273177,20.6518186 29.8506595,20.8996584 31.1102258,21.4882778 C31.7373517,21.7825875 31.9446221,21.6896476 32.1572071,21.0545582 C32.3804214,20.3833256 32.5664333,19.7017662 32.7737037,19.0253703 C32.911884,18.5709974 32.7418159,18.2715243 32.300702,18.0804812 C31.4928789,17.7345382 30.6637973,17.4866985 29.7921987,17.3524519 C28.6548688,17.1820621 28.6548688,17.1768988 28.6495541,16.0667832 C28.6442395,14.5022948 28.6442395,14.5022948 27.0285933,14.5022948 C26.7947498,14.5022948 26.5609062,14.4971315 26.3270627,14.5022948 C25.5723858,14.5229481 25.4448348,14.6520313 25.4235763,15.3903873 C25.4129471,15.7208403 25.4235763,16.0512933 25.4182617,16.3869096 C25.4129471,17.3679419 25.4076325,17.3524519 24.4403706,17.6932316 C22.1019353,18.5193641 20.6563571,20.0683625 20.5022329,22.54676 C20.3640527,24.7411745 21.5438996,26.2230497 23.3987039,27.3021852 C24.5413485,27.9682546 25.8062294,28.3606675 27.017964,28.8821637 C27.4909657,29.0835334 27.9427089,29.3158832 28.3359912,29.6360096 C29.4998942,30.5705719 29.2873092,32.1247337 27.9055065,32.7133531 C27.1667736,33.0283161 26.3855236,33.1057661 25.5830151,33.0076628 C24.3447073,32.8579263 23.1595458,32.5429633 22.0434744,31.9801605 C21.3897754,31.6497075 21.1984489,31.7374841 20.9752346,32.4242067 C20.7839081,33.0179895 20.6138401,33.6169355 20.443772,34.2158816 C20.2152431,35.0213608 20.3002771,35.2124039 21.0921564,35.5893269 C22.1019353,36.0643531 23.1808043,36.3070295 24.2809318,36.4774193 C25.1419012,36.6116659 25.1684743,36.6478092 25.1791035,37.5152483 C25.1844182,37.9076612 25.1844182,38.3052375 25.1897328,38.6976504 C25.1950474,39.1933299 25.4395202,39.4824763 25.9656682,39.492803 C26.5609062,39.5031296 27.1614589,39.5031296 27.756697,39.4876396 C28.2456426,39.477313 28.49543,39.2191466 28.49543,38.738957 C28.49543,38.2019709 28.5220031,37.6598215 28.5007446,37.1228353 C28.4741715,36.5755226 28.7186443,36.2967028 29.2607361,36.1521297 C30.5096731,35.8216767 31.5725983,35.1710973 32.3910506,34.2003916 C34.6657104,31.515461 33.7994264,27.5861683 30.5787633,25.8564534 Z" id="Combined-Shape"></path>
                                    </g>
                                </g>
                            </g>
                        </g>
                    </g>
                </g>
            </g>
        </g>
    </g>
</svg>