<?xml version="1.0" encoding="UTF-8"?>
<svg width="46px" height="42px" viewBox="0 0 46 42" version="1.1" xmlns="http://www.w3.org/2000/svg" xmlns:xlink="http://www.w3.org/1999/xlink">
    <!-- Generator: Sketch 52.5 (67469) - http://www.bohemiancoding.com/sketch -->
    <title>Icon/Guest List</title>
    <desc>Created with Sketch.</desc>
    <defs>
        <linearGradient x1="78.4453125%" y1="0%" x2="0%" y2="100%" id="linearGradient-1">
            <stop stop-color="#F2B031" offset="0%"></stop>
            <stop stop-color="#F04C23" offset="100%"></stop>
        </linearGradient>
        <path d="M4.50000019,40.5675 L4.5,47.25 L10.1250002,47.25 L10.1250002,38.5425 L10.125,38.5425146 C10.1560222,36.1280464 10.9127775,33.7898396 12.28125,31.8802646 C7.70624999,33.3787525 4.5,36.6997444 4.5,40.5674944 L4.50000019,40.5675 Z M27.0000001,24.975 L26.9999997,24.975 C31.6598997,24.9750002 35.4374997,20.895192 35.4374997,15.8625 C35.4374999,10.829808 31.6598997,6.75 26.9999997,6.75 C22.3400997,6.74999978 18.5624998,10.829808 18.5624998,15.8625 L18.5624997,15.8624632 C18.5727922,20.8905382 22.3443372,24.9638459 26.9999622,24.9750037 L27.0000001,24.975 Z M14.8125001,15.8625 L14.8124996,15.8626015 C14.8175775,14.9788166 14.8991765,14.0974819 15.0562308,13.2301015 C14.3751745,12.9711607 13.6594758,12.8343153 12.9374996,12.8249922 L12.9374993,12.8249922 C9.3131806,12.8061688 6.36093686,15.9640459 6.34351811,19.8783304 C6.3260891,23.7925947 9.25004935,26.9810179 12.8743868,26.9998302 C14.7905431,27.0097819 16.6150118,26.1147533 17.8687493,24.5497422 L17.8687496,24.5497425 C15.9043684,22.1526083 14.8176371,19.0635923 14.8124996,15.8624925 L14.8125001,15.8625 Z M41.71875,31.88025 C43.0872169,33.7898351 43.8439688,36.1280317 43.875,38.5425 L43.875,47.25 L49.5,47.25 L49.5,40.5675 C49.5,36.69975 46.29375,33.37875 41.71875,31.88025 Z M47.625,19.9125 L47.6250003,19.9124689 C47.6557171,16.0318399 44.7677815,12.8590901 41.1746065,12.8259004 C40.4148359,12.8188858 39.6597997,12.9556531 38.9437315,13.2300013 L38.943732,13.230004 C39.1007922,14.0973763 39.182397,14.978711 39.187482,15.862504 L39.1874821,15.8624477 C39.1823653,19.0635474 38.0956321,22.1525837 36.1312696,24.5497179 L36.1312699,24.5497182 C38.4950261,27.502229 42.6274324,27.826229 45.3612386,25.2733641 C46.8024592,23.927539 47.6290136,21.9701639 47.6250011,19.9125006 L47.625,19.9125 Z M27.0000001,29.025 C19.7625001,29.025 13.8750002,33.29775 13.8750002,38.5425 L13.8750002,47.25 L40.125,47.25 L40.125,38.5425 C40.125,33.29775 34.2375001,29.025 27.0000001,29.025 Z" id="path-2"></path>
    </defs>
    <g id="Desktop" stroke="none" stroke-width="1" fill="none" fill-rule="evenodd">
        <g id="3-Features" transform="translate(-336.000000, -566.000000)">
            <g id="Hero">
                <g id="Hero-Content" transform="translate(204.000000, 184.000000)">
                    <g id="Feature-Icons-Group" transform="translate(0.000000, 204.000000)">
                        <g id="Feature-Icons" transform="translate(64.000000, 48.000000)">
                            <g id="Feature-Icons-Row-2" transform="translate(0.000000, 124.000000)">
                                <g id="Components/Features/Icons-Copy">
                                    <g id="Icon/Team" transform="translate(64.000000, 0.000000)">
                                        <rect id="24pt-Bounding-Box" x="0" y="0" width="54" height="54"></rect>
                                        <mask id="mask-3" fill="white">
                                            <use xlink:href="#path-2"></use>
                                        </mask>
                                        <use id="Fill" fill="url(#linearGradient-1)" fill-rule="evenodd" xlink:href="#path-2"></use>
                                    </g>
                                </g>
                            </g>
                        </g>
                    </g>
                </g>
            </g>
        </g>
    </g>
</svg>