<?xml version="1.0" encoding="UTF-8"?>
<svg width="46px" height="46px" viewBox="0 0 46 46" version="1.1" xmlns="http://www.w3.org/2000/svg" xmlns:xlink="http://www.w3.org/1999/xlink">
    <!-- Generator: Sketch 52.5 (67469) - http://www.bohemiancoding.com/sketch -->
    <title>Icon/Guest Seating</title>
    <desc>Created with Sketch.</desc>
    <defs>
        <path d="M7.45443941,35.984701 C8.5476224,38.0024137 7.89890205,40.5825533 6.00529958,41.7475873 C4.11187288,42.9126213 1.60259692,42.2212248 0.509501814,40.2035122 C-0.58385696,38.1856122 0.153017635,35.6055662 2.04644433,34.4406259 C3.94004681,33.2754982 6.36116852,33.966801 7.45443941,35.984701 Z M20.5558482,37.6668307 C21.2833185,39.0095373 20.8498422,40.7335329 19.5898429,41.5087549 L15.018654,44.3213581 C12.8391435,45.6621915 10.1321137,45.1467818 8.49690954,43.2491409 C10.7094669,41.0690222 11.3088807,37.4739852 9.74020964,34.5784931 C8.17153862,31.6830009 4.95008531,30.4386371 2.07210838,31.3905014 C1.34736268,28.9324941 2.28216686,26.1764614 4.46167738,24.835628 L9.03286628,22.0231184 C10.2928656,21.2479901 11.9106674,21.7098265 12.6381377,23.0526268 C13.3655201,24.3953334 12.9321317,26.119329 11.6720445,26.894551 L9.38636218,28.3007589 L14.6648944,38.0435303 L16.9505768,36.6373224 C18.2105761,35.862194 19.8283779,36.3240304 20.5558482,37.6668307 Z M40.5383861,24.835628 C42.7178966,26.1764614 43.6527008,28.9324941 42.928043,31.3904078 C40.0499782,30.4386371 36.8286127,31.6829073 35.2599417,34.5783994 C33.6912707,37.4738915 34.2906844,41.0690222 36.5032418,43.2490473 C34.8680376,45.1467818 32.1610079,45.6620979 29.9814974,44.3212644 L25.4103085,41.5087549 C24.1502213,40.7335329 23.7167449,39.0096309 24.4442152,37.6668307 C25.1716855,36.3240304 26.7893995,35.8621003 28.0494867,36.6373224 L30.335169,38.0435303 L35.6137013,28.3007589 L33.328019,26.894551 C32.0679318,26.119329 31.6344554,24.395427 32.3619257,23.0526268 C33.089396,21.7098265 34.70711,21.2478964 35.9671972,22.0231184 L40.5383861,24.835628 Z M42.9536191,34.4405322 C44.8470458,35.6054725 45.5838325,38.1855185 44.4905617,40.2033249 C43.3974666,42.2210375 40.8881906,42.912434 38.9947639,41.7474 C37.1011614,40.5825533 36.4524411,38.00232 37.5456241,35.9846073 C38.6388949,33.9667074 41.0600167,33.2754982 42.9536191,34.4405322 Z M28.9248768,5.83908294 C31.2847388,6.3994494 33.0570523,8.64007234 33.0571402,11.3217392 L33.0571402,16.9467583 C33.0571402,18.4972023 31.8728147,19.7592679 30.4178741,19.7592679 C28.9629335,19.7592679 27.7786079,18.4972023 27.7786079,16.9467583 L27.7786079,14.1342488 L17.2216313,14.1342488 L17.2216313,16.9467583 C17.2216313,18.4972023 16.0373058,19.7592679 14.5823652,19.7592679 C13.1274246,19.7592679 11.9430991,18.4972023 11.9430991,16.9467583 L11.9430991,11.3217392 C11.9430991,8.64007234 13.7153246,6.3994494 16.0752745,5.83908294 C16.7406941,8.97106601 19.3627337,11.3217392 22.5000757,11.3217392 C25.6374177,11.3217392 28.2594573,8.97106601 28.9248768,5.83908294 Z M22.4996362,8.50922963 C20.3132208,8.50922963 18.540781,6.62044546 18.540781,4.29051212 C18.540781,1.96057877 20.3132208,0.0717946058 22.4996362,0.0717946058 C24.6860516,0.0717946058 26.4584915,1.96057877 26.4584915,4.29051212 C26.4584915,6.62044546 24.6860516,8.50922963 22.4996362,8.50922963 Z" id="path-1"></path>
        <linearGradient x1="78.4453125%" y1="0%" x2="0%" y2="100%" id="linearGradient-3">
            <stop stop-color="#F2B031" offset="0%"></stop>
            <stop stop-color="#F04C23" offset="100%"></stop>
        </linearGradient>
    </defs>
    <g id="Desktop" stroke="none" stroke-width="1" fill="none" fill-rule="evenodd">
        <g id="3-Features" transform="translate(-698.000000, -564.000000)">
            <g id="Hero">
                <g id="Hero-Content" transform="translate(204.000000, 184.000000)">
                    <g id="Feature-Icons-Group" transform="translate(0.000000, 204.000000)">
                        <g id="Feature-Icons" transform="translate(64.000000, 48.000000)">
                            <g id="Feature-Icons-Row-2" transform="translate(0.000000, 124.000000)">
                                <g id="Components/Features/Icons" transform="translate(362.000000, 0.000000)">
                                    <g id="Icon/Guest-Seating" transform="translate(64.000000, 0.000000)">
                                        <g id="Rectangle" transform="translate(4.500000, 4.500000)">
                                            <mask id="mask-2" fill="white">
                                                <use xlink:href="#path-1"></use>
                                            </mask>
                                            <use id="Mask" fill="#01435C" xlink:href="#path-1"></use>
                                            <rect fill="url(#linearGradient-3)" mask="url(#mask-2)" x="0" y="0" width="45" height="45"></rect>
                                        </g>
                                    </g>
                                </g>
                            </g>
                        </g>
                    </g>
                </g>
            </g>
        </g>
    </g>
</svg>