<svg height="72" viewBox="0 0 72 72" width="72" xmlns="http://www.w3.org/2000/svg" xmlns:xlink="http://www.w3.org/1999/xlink"><linearGradient id="a" x1="77.578568%" x2="1.523529%" y1="0%" y2="100%"><stop offset="0" stop-color="#f2b031"/><stop offset="1" stop-color="#f04c23"/></linearGradient><path d="m2.21538462 0c-1.22289231 0-2.21538462 1.0752-2.21538462 2.4s.99249231 2.4 2.21538462 2.4h8.62227688l1.8564923 7.5324c.0121847.096.0299077.192.0531693.2868l7.0892307 28.704c.0055385.024.0144.0468.0210462.0708l2.3726769 9.6252c.2569846 1.0512 1.1342769 1.7808 2.1400616 1.7808h35.4461538c1.2228923 0 2.2153846-1.0752 2.2153846-2.4s-.9924923-2.4-2.2153846-2.4h-33.7447385l-1.2439384-5.0496 39.5302154-2.1552c1.0235077-.0576 1.8830769-.8688 2.0691692-1.9632l4.4307692-26.4c.1196308-.7056-.0576-1.4256-.478523-1.968-.4209231-.5472-1.0456616-.864-1.7014154-.864h-52.0704l-1.9273846-7.8192c-.2569847-1.0512-1.134277-1.7808-2.1400616-1.7808zm26.58461538 19.2c1.2228923 0 2.2153846 1.0752 2.2153846 2.4v9.6c0 1.3248-.9924923 2.4-2.2153846 2.4s-2.2153846-1.0752-2.2153846-2.4v-9.6c0-1.3248.9924923-2.4 2.2153846-2.4zm13.2912 0c1.2228923 0 2.2153846 1.0752 2.2153846 2.4v9.6c0 1.3248-.9924923 2.4-2.2153846 2.4s-2.2153846-1.0752-2.2153846-2.4v-9.6c0-1.3248.9924923-2.4 2.2153846-2.4zm13.2923077 0c1.2228923 0 2.2153846 1.0752 2.2153846 2.4v9.6c0 1.3248-.9924923 2.4-2.2153846 2.4s-2.2153846-1.0752-2.2153846-2.4v-9.6c0-1.3248.9924923-2.4 2.2153846-2.4zm-26.5835077 38.4c-3.6708923 0-6.6461538 3.2232-6.6461538 7.2 0 3.9768 2.9752615 7.2 6.6461538 7.2 3.6708923 0 6.6461538-3.2232 6.6461538-7.2 0-3.9768-2.9752615-7.2-6.6461538-7.2zm26.5835077 0c-3.6708923 0-6.6461539 3.2232-6.6461539 7.2 0 3.9768 2.9752616 7.2 6.6461539 7.2 3.6708923 0 6.6461538-3.2232 6.6461538-7.2 0-3.9768-2.9752615-7.2-6.6461538-7.2z" fill="url(#a)" fill-rule="evenodd" transform="translate(.5)"/></svg>