<?xml version="1.0" encoding="UTF-8"?>
<svg width="442px" height="216px" viewBox="0 0 442 216" version="1.1" xmlns="http://www.w3.org/2000/svg" xmlns:xlink="http://www.w3.org/1999/xlink">
    <!-- Generator: Sketch 52.5 (67469) - http://www.bohemiancoding.com/sketch -->
    <title>Rocket</title>
    <desc>Created with Sketch.</desc>
    <defs>
        <path d="M410.239921,318.227484 C409.878576,318.227484 409.510036,318.136278 409.174273,317.942762 C408.152593,317.357458 407.80244,316.061539 408.392424,315.047169 L412.911638,307.281173 C413.501622,306.269183 414.807901,305.919428 415.830381,306.506319 C416.85206,307.091623 417.201414,308.387542 416.612229,309.400326 L412.092216,317.166322 C411.696495,317.847591 410.978601,318.227484 410.239921,318.227484 Z M421.430557,324.63071 C421.068412,324.63071 420.700671,324.540293 420.364908,324.346771 C419.343228,323.761445 418.993075,322.466271 419.583059,321.451071 L424.102274,313.684791 C424.692258,312.672763 425.998537,312.322202 427.021016,312.909907 C428.042696,313.49444 428.39205,314.7912 427.802865,315.804021 L423.282851,323.571095 C422.88713,324.250803 422.169236,324.63071 421.430557,324.63071 Z M412.617292,327.832323 C412.258688,327.832323 411.895333,327.738836 411.562061,327.541296 C410.550368,326.940544 410.203638,325.612226 410.787063,324.573308 L420.944361,306.507688 C421.527787,305.469583 422.818922,305.111896 423.833781,305.712648 C424.845473,306.311773 425.192204,307.640904 424.607987,308.679009 L414.45148,326.745443 C414.059627,327.442932 413.348751,327.832323 412.617292,327.832323 Z M432.229889,318.247427 C431.915752,318.247427 431.601615,318.178592 431.310658,318.039322 C430.703966,317.749576 430.26833,317.190895 430.135642,316.529762 C430.022137,315.961475 428.423474,307.998264 426.850391,299.579623 C418.807521,302.553121 411.205083,305.47059 411.071595,305.521816 C410.43133,305.76834 409.713531,305.690701 409.138812,305.316113 C408.564892,304.940723 408.205993,304.312407 408.17322,303.627262 C408.134852,302.827659 407.303548,283.958153 412.724611,274.486981 C416.913906,267.168895 429.354695,260.428699 433.068387,258.537346 C436.774886,256.648395 449.215675,250.68459 453.663153,253.206661 C458.102638,255.783959 459.249678,269.548494 459.495073,273.705788 C459.741267,277.870286 460.220066,292.027018 456.030772,299.345104 C450.609708,308.815475 433.927668,317.631917 433.22026,318.003304 C432.91012,318.164986 432.570404,318.247427 432.229889,318.247427 Z M430.919785,298.08607 C431.994086,303.852975 433.10116,309.517429 433.751016,312.804685 C438.507836,310.032088 448.680123,303.585641 452.325073,297.217633 C457.858842,287.548762 454.688695,259.189675 451.522545,256.908526 C448.007086,255.350941 421.965678,266.946383 416.43031,276.614453 C412.802147,282.952846 412.372906,294.888459 412.384096,300.442457 C415.488698,299.260262 420.713926,297.282465 426.06225,295.308671 C425.192578,290.526262 424.414029,285.97757 424.006371,282.955248 C423.391685,278.392149 425.734524,274.451764 429.704003,273.37282 L430.037324,273.282375 C433.752615,272.273867 437.675732,274.554215 439.225635,278.448977 C440.933805,278.189647 442.672351,278.408157 444.208665,279.0893 C446.290922,280.011365 447.750501,281.676203 448.319625,283.776461 L448.409949,284.108629 C449.547397,288.309945 447.099846,292.629721 442.838611,293.946385 C440.084916,294.796413 435.631842,296.368405 430.919785,298.08607 Z M431.872588,277.314006 C431.637585,277.314006 431.398585,277.344421 431.155588,277.410054 L430.823066,277.5013 C428.662474,278.087996 427.969454,280.376348 428.240427,282.38376 C428.615314,285.164361 429.326718,289.347268 430.135642,293.81752 C434.64227,292.180695 438.869133,290.695947 441.579665,289.858725 C443.62915,289.225606 444.819354,287.192582 444.287799,285.230794 L444.197474,284.897826 C443.908116,283.830088 443.103989,283.27701 442.479712,283.000871 C441.529307,282.579058 440.363882,282.507822 439.282387,282.80157 L438.325588,283.061701 C437.778046,283.210576 437.195334,283.135338 436.703745,282.852796 C436.212157,282.571054 435.852458,282.104419 435.704581,281.556943 L435.444799,280.59806 C434.981986,278.888399 433.547187,277.314006 431.872588,277.314006 Z" id="path-1"></path>
    </defs>
    <g id="Page-1" stroke="none" stroke-width="1" fill="none" fill-rule="evenodd">
        <g id="2-Features" transform="translate(-578.000000, -729.000000)">
            <g id="Rocket" transform="translate(800.099201, 806.669068) rotate(4.000000) translate(-800.099201, -806.669068) translate(561.099201, 608.169068)">
                <path d="M101.494429,32.0786808 C68.9015042,78.1095305 70.6900559,170.087569 186.774132,224.948013 C264.163516,261.521642 303.731961,308.109176 305.479467,364.710615" id="Path-4" stroke="#F04C23" stroke-width="3.2" stroke-dasharray="10.4,19.2" transform="translate(194.396771, 198.394648) rotate(-42.000000) translate(-194.396771, -198.394648) "></path>
                <mask id="mask-2" fill="white">
                    <use xlink:href="#path-1"></use>
                </mask>
                <use id="Fill-27" fill="#F04C23" transform="translate(434.084089, 290.213371) rotate(-254.000000) translate(-434.084089, -290.213371) " xlink:href="#path-1"></use>
            </g>
        </g>
    </g>
</svg>