<svg xmlns="http://www.w3.org/2000/svg" width="32" height="46" xmlns:xlink="http://www.w3.org/1999/xlink"><title>Icon/Text Messaging</title><desc>Created with Sketch.</desc><defs><linearGradient id="b" x1="78.445%" x2="0%" y1="0%" y2="100%"><stop stop-color="#F2B031" offset="0%"/><stop stop-color="#F04C23" offset="100%"/></linearGradient><path id="a" d="M37.5 4.5h-21c-2.9 0-5.25 2.52-5.25 5.63v33.75c0 3.1 2.35 5.62 5.25 5.62h21c2.9 0 5.25-2.52 5.25-5.63V10.13c0-3.1-2.35-5.63-5.25-5.63zm.75 37.5c0 1.66-1.26 3-2.8 3h-16.9c-1.54 0-2.8-1.34-2.8-3V12c0-1.66 1.26-3 2.8-3h2.82v2c0 1.1.84 2 1.88 2h7.5c1.04 0 1.87-.9 1.87-2V9h2.82c1.55 0 2.8 1.34 2.8 3v30z"/></defs><g fill="none"><g><g><g><g><g><g><g><g transform="translate(-11 -4)"><path d="M0 0h54v54H0z"/><mask><use xlink:href="#a"/></mask><use fill="url(#b)" xlink:href="#a"/></g></g></g></g></g></g></g></g></g></svg>