<svg xmlns="http://www.w3.org/2000/svg" width="62" height="63" xmlns:xlink="http://www.w3.org/1999/xlink"><title>Global/Icons/ipad</title><desc>Created with Sketch.</desc><defs><linearGradient id="b" x1="0%" x2="95.257%" y1="100%" y2="0%"><stop stop-color="#F04C23" offset="0%"/><stop stop-color="#F2B031" offset="100%"/></linearGradient><path id="a" d="M44.7 6.25H29.25c-12.8.03-23.12 10.55-23.1 23.5.03 10.9 7.47 20.33 17.95 22.78v16.22l18.02-15.63h2.57c12.77 0 23.13-10.5 23.13-23.43 0-12.96-10.36-23.45-23.14-23.45zM22.82 33.6c-2.13 0-3.86-1.76-3.86-3.9 0-2.17 1.73-3.92 3.86-3.92s3.86 1.75 3.86 3.9c0 2.16-1.74 3.9-3.87 3.9zm14.14 0c-2.13 0-3.86-1.76-3.86-3.9 0-2.17 1.74-3.92 3.87-3.92s3.86 1.75 3.86 3.9c0 2.16-1.73 3.9-3.86 3.9zm14.15 0c-2.13 0-3.86-1.76-3.86-3.9 0-2.17 1.73-3.92 3.86-3.92s3.85 1.75 3.85 3.9c0 2.16-1.72 3.9-3.85 3.9z"/></defs><g fill="none"><g><g><g id="Benefits"><g><g><g><g transform="translate(-6 -6)"><path d="M0 0h74v75H0z"/><mask><use xlink:href="#a"/></mask><use fill="url(#b)" xlink:href="#a"/></g></g></g></g></g></g></g></g></svg>