<svg xmlns="http://www.w3.org/2000/svg" width="42" height="46" xmlns:xlink="http://www.w3.org/1999/xlink"><title>Icon/Registration Website</title><desc>Created with Sketch.</desc><defs><linearGradient id="b" x1="78.445%" x2="0%" y1="0%" y2="100%"><stop stop-color="#F2B031" offset="0%"/><stop stop-color="#F04C23" offset="100%"/></linearGradient><path id="a" d="M43.57 4.5H10.43c-2.03 0-3.68 1.68-3.68 3.75v37.5c0 2.07 1.65 3.75 3.68 3.75h33.14c2.03 0 3.68-1.68 3.68-3.75V8.25c0-2.07-1.65-3.75-3.68-3.75zM27 45.75c-1.53 0-2.76-1.26-2.76-2.8 0-1.57 1.23-2.82 2.76-2.82 1.53 0 2.76 1.25 2.76 2.8 0 1.56-1.23 2.82-2.76 2.82zM42.75 36h-31.5V11.25h31.5V36z"/></defs><g fill="none"><g><g><g><g><g><g><g><g transform="translate(-6 -4)"><path d="M0 0h54v54H0z"/><mask><use xlink:href="#a"/></mask><use fill="url(#b)" xlink:href="#a"/></g></g></g></g></g></g></g></g></g></svg>