<svg xmlns="http://www.w3.org/2000/svg" width="108" height="23" xmlns:xlink="http://www.w3.org/1999/xlink"><defs><path id="a" d="M.2.1h4.53v6.75H.2z"/></defs><g fill="none"><path fill="#01435C" d="M35.33 13.3c0 3.1-1.8 4.98-4.3 4.98-1.32 0-2.44-.63-3.2-1.6v.58c.02.5-.4.88-.9.88a.9.9 0 0 1-.9-.88V5.66c0-.48.4-.87.9-.87s.92.38.92.87v4.2A3.92 3.92 0 0 1 31 8.28c2.55 0 4.33 1.96 4.33 5.02m-1.87 0c0-2-1.12-3.44-2.93-3.44-1.1 0-2.2.65-2.7 1.42v4.04c.5.77 1.6 1.38 2.7 1.38 1.8 0 2.93-1.42 2.93-3.4m3.9-7.82c0-.64.54-1.13 1.16-1.13.64 0 1.17.5 1.17 1.13 0 .63-.54 1.14-1.18 1.14-.62 0-1.16-.5-1.16-1.14m.28 11.78V9.3c0-.5.4-.88.9-.88.48 0 .9.4.9.88v7.95c0 .5-.42.9-.92.9a.9.9 0 0 1-.88-.9M51.02 5.67v11.6a.9.9 0 0 1-.9.87c-.48 0-.9-.4-.9-.88v-.58c-.74.97-1.9 1.6-3.17 1.6-2.53 0-4.34-1.87-4.34-5 0-3.05 1.82-5 4.35-5 1.24 0 2.38.57 3.17 1.62V5.67c0-.5.42-.88.9-.88.5 0 .9.38.9.87m-1.8 9.65v-4.06c-.5-.77-1.6-1.4-2.7-1.4-1.8 0-2.92 1.44-2.92 3.43 0 1.96 1.12 3.4 2.93 3.4 1.1 0 2.2-.6 2.7-1.38"/><path fill="#F04C23" d="M59 9.2c0 .42-.3.78-.93.86-.8.07-1.93.64-2.35 1.35v5.86a.9.9 0 0 1-.9.88.9.9 0 0 1-.9-.88V9.3c0-.5.4-.88.88-.88.5 0 .92.4.92.88v.68c.54-.7 1.3-1.3 2-1.52.23-.06.37-.1.53-.1.52 0 .76.4.76.85m1.1 4.07c0-2.74 1.88-5 4.9-5 3.02 0 4.9 2.26 4.9 5 0 2.76-1.88 5-4.9 5-3.02 0-4.9-2.24-4.9-5m7.9 0c0-1.8-1.06-3.4-3-3.4-1.93 0-3.02 1.6-3.02 3.4 0 1.82 1.1 3.43 3 3.43 1.96 0 3.02-1.6 3.02-3.43m8.5-5c1.4 0 2.36.44 3.1 1.1.16.15.28.4.28.6 0 .46-.36.8-.8.8a.82.82 0 0 1-.54-.18c-.56-.53-1.2-.74-1.95-.74-1.9 0-3.14 1.44-3.14 3.4 0 1.98 1.23 3.44 3.13 3.44.76 0 1.38-.2 1.94-.73a.77.77 0 0 1 .52-.2c.46 0 .82.36.82.8a.84.84 0 0 1-.28.6c-.74.68-1.7 1.1-3.1 1.1-2.92 0-4.93-2.14-4.93-5s2-5 4.94-5m13.88 9a.88.88 0 0 1-.88.87c-.28 0-.53-.07-.7-.3l-3.36-3.88-1.5 1.38v1.92c0 .5-.42.88-.93.88a.9.9 0 0 1-.87-.88V5.66c0-.48.4-.87.9-.87s.9.38.9.87v7.68l4.88-4.72c.17-.15.38-.2.6-.2.46 0 .82.38.82.82 0 .2-.1.4-.26.57l-3.2 3.06 3.4 3.78c.14.16.22.4.22.6m5.96-8.98c2.9 0 4.72 2.23 4.72 4.73 0 .55-.4.86-1.07.86h-6.6c.13 1.62 1.33 2.96 3.28 2.96a4.2 4.2 0 0 0 2.4-.77c.1-.08.25-.1.4-.1.4 0 .73.32.73.7 0 .27-.1.47-.3.6-.97.7-2.12 1.03-3.4 1.03-2.9 0-5.02-2-5.02-5 0-2.77 2.03-5 4.86-5m-2.97 4.3h5.92c-.05-1.26-.9-2.84-2.96-2.84-1.95 0-2.87 1.54-2.97 2.84m14.47 4.76c0 .33-.18.57-.46.67-.34.17-.8.28-1.4.28-1.5 0-2.3-.85-2.3-2.35v-5.86h-.92c-.42 0-.8-.35-.8-.78 0-.43.38-.78.8-.78h.93V6.7c0-.5.4-.9.9-.9.47 0 .9.4.9.9v1.8h1.26c.44.02.8.37.8.8 0 .42-.36.77-.8.77h-1.27v5.47c0 .67.3 1.16.94 1.16.34 0 .46-.1.64-.1.46-.02.76.3.76.73M7.62 20.08a.67.67 0 0 1-.28-.06.66.66 0 0 1-.37-.45c-.03-.18-.53-2.6-1.02-5.2-2.5.92-4.87 1.8-4.9 1.83a.68.68 0 0 1-.62-.06.65.65 0 0 1-.3-.52c0-.24-.27-6 1.42-8.9 1.3-2.24 5.18-4.3 6.33-4.88C9.04 1.24 12.9-.58 14.3.2c1.38.78 1.74 4.98 1.8 6.25.1 1.28.24 5.6-1.07 7.84-1.68 2.9-6.88 5.58-7.1 5.7a.68.68 0 0 1-.3.07m-.4-6.16c.32 1.77.67 3.5.87 4.5 1.48-.84 4.64-2.8 5.78-4.76 1.72-2.96.74-11.62-.25-12.32C12.53.84 4.43 4.4 2.7 7.34c-1.13 1.94-1.26 5.6-1.26 7.3.97-.37 2.6-.98 4.26-1.58-.27-1.46-.5-2.86-.64-3.78-.2-1.4.54-2.6 1.78-2.93l.1-.03c1.16-.3 2.38.4 2.86 1.58a2.85 2.85 0 0 1 1.55.2c.65.28 1.1.8 1.28 1.43l.03.1c.36 1.3-.4 2.6-1.73 3-.86.27-2.25.75-3.7 1.28m.28-6.34a.87.87 0 0 0-.2.03h-.1c-.7.2-.9.9-.82 1.5.12.86.34 2.13.6 3.5 1.4-.5 2.7-.95 3.56-1.2.63-.2 1-.82.84-1.42l-.03-.1c-.1-.33-.34-.5-.53-.6a1.54 1.54 0 0 0-1-.04l-.3.07a.67.67 0 0 1-.5-.05.66.66 0 0 1-.3-.4l-.1-.3c-.14-.5-.58-1-1.1-1"/><g transform="translate(.498 16.085)"><mask id="b"><use xlink:href="#a"/></mask><path fill="#F04C23" d="M.87 6.85a.67.67 0 0 1-.33-.1.65.65 0 0 1-.25-.88L3.47.43a.67.67 0 0 1 .9-.24c.33.17.44.57.26.9L1.44 6.5a.67.67 0 0 1-.57.33" mask="url(#b)"/></g><path fill="#F04C23" d="M4.14 22.16a.67.67 0 0 1-.33-.1.65.65 0 0 1-.23-.9l1.4-2.38a.67.67 0 0 1 .9-.24c.33.18.44.58.26.9l-1.4 2.4a.67.67 0 0 1-.6.3M.67 20.2a.67.67 0 0 1-.33-.1.65.65 0 0 1-.24-.88l1.4-2.4a.67.67 0 0 1 .9-.24c.32.18.43.58.25.9l-1.4 2.4a.67.67 0 0 1-.6.32"/></g></svg>