<?xml version="1.0" encoding="UTF-8"?>
<svg width="169px" height="169px" viewBox="0 0 169 169" version="1.1" xmlns="http://www.w3.org/2000/svg" xmlns:xlink="http://www.w3.org/1999/xlink">
    <!-- Generator: Sketch 55.2 (78181) - https://sketchapp.com -->
    <title>St__Lukes</title>
    <desc>Created with Sketch.</desc>
    <g id="Page-1" stroke="none" stroke-width="1" fill="none" fill-rule="evenodd">
        <g id="Home-v1-pt2" transform="translate(-554.000000, -7595.000000)">
            <g id="St__Lukes" transform="translate(554.000000, 7595.000000)">
                <polygon id="Fill-1" fill="#FFFFFE" points="0 169 169 169 169 0 0 0"></polygon>
                <polyline id="Fill-2" fill="#1A1919" points="156.6215 65.379 156.3785 65.621 156.6215 65.379"></polyline>
                <path d="M29.5964237,64.4793243 L29.5592869,71.6899619 C28.6444524,71.6899619 27.5104199,71.6899619 26.7785523,71.6899619 C26.4497554,68.7001854 23.8882188,66.0273216 20.9978852,65.1828011 C18.9481125,64.8310627 16.3865759,64.7257153 15.1429444,66.6254511 C14.7770106,67.5039265 14.9599775,68.1725777 15.3992792,68.8403583 C16.0577789,69.5090096 16.6800475,69.9660954 17.2651793,70.247312 C22.4244836,73.3076104 30.1453244,74.3271294 31.9016255,81.6074182 C32.3037904,84.7025422 31.4985549,87.2700586 29.011292,89.2403161 C23.0096153,93.7423938 13.8984072,92.1595709 7.71466944,88.6064904 L7.12953767,88.2556227 L7.12953767,79.0755981 C8.22733907,79.0755981 8.51990496,79.0755981 10.130376,79.0755981 C10.130376,83.6125014 13.1303085,86.6022779 16.6800475,88.2556227 C18.3992118,88.9582289 21.2533143,88.8180559 22.6436815,87.9387098 C23.5956529,87.2700586 23.8148509,86.7781472 23.522285,85.7577575 C22.0947808,83.5419796 19.7895791,82.4171131 17.3747783,81.1503324 C13.4600113,79.0407725 7.89763634,77.0356894 7.0933066,72.4987862 C6.61777382,69.2983148 7.97100426,66.4844074 10.8984747,64.5846717 C15.9481799,61.13868 24.5104874,61.1735055 29.5964237,64.4793243" id="Fill-3" fill="#1A1919"></path>
                <path d="M37.3744643,65 C37.3744643,66.659313 37.1732233,67.2596016 36.5686688,68.2828009 C35.6281584,70.5773538 33.7804004,70.8246343 32,70.8246343 C32,71.7770572 32,72.2366668 32,73.6486994 L33.4444444,73.6486994 L33.4444444,84.6260292 C33.3097294,86.7790294 33.8477579,88.1910619 34.2843344,88.9320295 C34.9895094,90.5913425 36.4680484,91.5795905 37.8110407,91.8618223 C41.1032431,92.3913345 43.1863366,91.4030865 45,88.8263018 C44.9334741,87.9088302 44.966737,86.7790294 44.966737,85.8257326 C44.0935841,86.884757 43.0857161,87.9088302 41.6412717,87.7323261 C41.1706007,87.5199969 40.7340242,87.0612611 40.5993092,86.2145658 L40.5993092,73.6486994 L43.824154,73.6486994 L43.824154,70.8595856 L40.5993092,70.8595856 L40.5993092,65 L37.3744643,65" id="Fill-4" fill="#1A1919"></path>
                <path d="M157.315271,79.3045482 C157.208264,78.6222994 157.138096,78.1908904 157.031966,77.6162714 C156.252217,75.460116 154.2682,73.4836402 151.89387,73.2674909 C150.688724,73.3039606 149.41341,73.4836402 148.810837,74.6693478 C148.669623,75.9271051 149.661631,76.8975529 150.65364,77.5442217 C154.197154,80.3470458 160.716694,80.8140349 161,86.7069927 C160.680733,88.5758387 159.65364,90.2641155 157.952929,91.414243 C153.736673,94.1094372 147.111003,93.0313595 143,90.6955245 L143.035961,83.9762183 L144.948933,83.9762183 C145.303284,86.8146226 147.535523,89.7971264 150.370334,90.6955245 C151.822824,90.8752041 153.665627,91.1269335 154.444499,89.5818666 C154.799727,88.7190487 154.303284,87.9647501 153.877887,87.2460316 C150.618556,84.2991079 144.984894,84.1194283 143.531527,78.9807691 C143.035961,77.3645421 143.425397,75.3880662 144.347237,74.0947288 C147.889874,69.8544677 154.763766,70.6087663 159.193159,72.5852421 L159.193159,79.3045482 L157.315271,79.3045482" id="Fill-5" fill="#1A1919"></path>
                <path d="M83.61408,84.3725856 C83.61408,85.6605667 82.9943348,86.7688501 82.1192942,87.5558021 C81.3543103,88.127648 81.0629308,88.3418689 80.0426515,88.3064605 C79.4229062,88.0922396 78.9493018,87.412398 78.9123155,86.8759605 C78.9123155,86.5183356 78.9123155,86.3041146 78.9123155,86.3041146 L78.9123155,72 L69,72 L69,74.575077 C69.5105907,74.575077 69.6928156,74.575077 70.0572655,74.575077 C70.6039404,74.7175959 71.0775448,74.932702 71.2597698,75.5045479 C71.4059106,75.6470668 71.5150651,75.8621729 71.5150651,76.7562354 C71.5150651,77.8645188 71.5150651,79.2233168 71.5150651,80.4750042 C71.5150651,81.6549897 71.5511493,82.9783792 71.5150651,84.1937731 C71.5150651,87.8417251 71.7703605,90.988648 75.0134233,92.6333689 C78.9123155,93.8133543 81.3182261,91.989821 83.6501642,89.3793355 L83.6862483,92.7050709 L94,92.7050709 L94,90.1662876 C92.7974958,90.0228835 92.5782846,90.0228835 91.9224552,89.5227396 C91.5580053,89.2722251 90.9021759,88.4498646 90.9021759,87.698321 L90.8660917,72 L81.1360012,72 L81.1360012,74.575077 C81.1360012,74.575077 82.0471259,74.575077 82.1923646,74.575077 C83.1765597,74.7892979 83.61408,75.5045479 83.61408,76.4340188 L83.61408,84.3725856" id="Fill-6" fill="#1A1919"></path>
                <path d="M117,91 L108.393182,91 C108.107614,90.2674502 107.929024,89.6401666 107.071436,88.3855995 C105.321781,85.8065754 103.392651,83.1576614 101.429041,80.7175543 C101.429041,81.9022315 101.429041,83.4009819 101.429041,84.9696221 C101.429041,86.433859 101.429041,87.5141327 102.642925,88.3855995 C103.000106,88.6642963 103.856809,88.8040762 104.143261,88.8040762 L104.071648,91 L94.1784489,90.9646236 L94.1784489,66.4263612 C94.1068359,65.6946742 93.6780422,65.2408212 93.285497,64.9621244 C93.0715422,64.6135376 92.3925452,64.5091342 92,64.5091342 L92,62 L101.429041,62 L101.429041,77.5457602 C103.392651,75.4542398 105.678962,74.4783695 105.678962,70.8182089 L114.10719,70.8182089 L114.10719,73.2928295 C110.678608,73.2928295 108.785727,74.3040762 106.857481,76.6044035 L114.893164,87.8282059 C115.535913,88.3855995 116.071684,88.8040762 117,88.8040762 L117,91" id="Fill-7" fill="#1A1919"></path>
                <path d="M128.300566,79.7671138 C128.229744,77.7271307 128.19477,76.39065 127.311688,74.7372449 C126.816811,74.0694399 126.039523,73.5766399 125.333057,73.5766399 C124.626591,73.5766399 123.850177,74.0694399 123.355301,74.7372449 C122.508066,76.39065 122.437244,77.7271307 122.402271,79.7671138 L128.300566,79.7671138 Z M136,84.5854096 C135.78841,88.0323979 132.609311,91.6204349 129.183649,92.6051643 C125.439726,93.6604181 121.659956,92.4998131 118.834091,90.3187811 L118.269267,89.8616786 C115.47925,87.0476685 114.383702,83.1087509 115.337607,79.2046601 C116.326485,75.476445 120.070407,71.7830567 123.955972,71.1849054 C127.488304,70.5876248 131.019762,71.3964786 133.45742,74.209618 C135.187739,76.4263475 136.070822,78.7118601 135.859231,82.1240215 L122.437244,82.0883239 C122.402271,83.988129 123.214532,86.6262635 125.403879,87.8922198 C127.099223,88.911776 129.748472,88.8421223 131.408843,87.7163441 C132.645159,86.9074904 133.175009,85.6763609 133.45742,84.5505828 L136,84.5854096 L136,84.5854096 Z" id="Fill-8" fill="#1A1919"></path>
                <path d="M137.647124,70.1300685 L133.64903,71.501767 L135.206229,67.3509639 L123,64.9933844 L135.17032,62.7768938 L133.543057,58.590383 L137.718065,60.173715 L139.982046,48 L142.246902,60.173715 L146.386002,58.590383 L144.82968,62.7768938 L157,64.9933844 L144.793771,67.3509639 L146.315061,71.501767 L142.316968,70.1300685 L139.982046,100 L137.647124,70.1300685 Z M139.982046,82.09215 L140.93756,67.9841225 L143.732284,68.9691326 L142.777646,66.1891571 L149.251668,64.9933844 L142.812679,63.9029929 L143.732284,61.1587251 L141.008501,62.3902055 L139.982046,55.9514965 L138.991499,62.3902055 L136.267716,61.1587251 L137.152289,63.9029929 L130.712424,64.9933844 L137.152289,66.1891571 L136.231808,68.9691326 L139.027408,67.9841225 L139.982046,82.09215 L139.982046,82.09215 Z" id="Fill-9" fill="#1A1919"></path>
                <path d="M65,97 C65.3789833,97.0344046 65.7588202,97.0679701 66.1036608,97.0679701 C66.4826442,97.0679701 66.8616275,97.0344046 67.2414643,97 L67.2414643,100.932198 C67.999431,100.966602 68.7241085,101.000168 69.4829287,101.000168 C70.2758915,101.000168 70.9997155,100.966602 71.7585357,100.932198 L71.7585357,97 C72.137519,97.0344046 72.5165023,97.0679701 72.8613429,97.0679701 C73.2411798,97.0679701 73.6201631,97.0344046 74,97 L74,107 C73.6201631,106.966435 73.2411798,106.93203 72.8613429,106.93203 C72.5165023,106.93203 72.137519,106.966435 71.7585357,107 L71.7585357,102.085172 C70.9997155,102.085172 70.2758915,102.017202 69.4829287,102.017202 C68.7241085,102.017202 67.999431,102.085172 67.2414643,102.085172 L67.2414643,107 C66.8616275,106.966435 66.4826442,106.93203 66.1036608,106.93203 C65.7588202,106.93203 65.3789833,106.966435 65,107 L65,97" id="Fill-10" fill="#1A1919"></path>
                <path d="M82.2823175,108 C79.106471,108 77,105.993711 77,102.518626 C77,99.472827 79.0725357,97 82.6506396,97 C86.7634312,97 87.9668924,100.045799 88,102.446783 C88,105.456217 85.8273138,108 82.2823175,108 Z M79.3738149,102.984277 C79.3738149,104.955088 80.2428894,107.068699 82.4164033,107.068699 C84.6230248,107.068699 85.5599699,104.70408 85.5599699,102.160297 C85.5599699,100.15312 84.724003,97.8958233 82.5835967,97.8958233 C80.5772761,97.8958233 79.3738149,99.5083051 79.3738149,102.984277 L79.3738149,102.984277 Z" id="Fill-11" fill="#1A1919"></path>
                <path d="M94.6998106,99.2218191 C94.3939394,98.4342042 93.7433712,97.8958233 92.8248106,97.8958233 C91.5246212,97.8958233 90.9886364,98.5415256 90.9886364,99.4373488 C90.9886364,101.479116 96,101.085309 96,104.632237 C96,106.603048 94.2026515,108 91.6392045,108 C90.7594697,108 89.7651515,107.820835 89,107.390663 C89.1912879,106.710369 89.3825758,106.065554 89.4583333,105.420739 L89.7651515,105.420739 C90.032197,106.459361 90.9128788,107.068699 92.0596591,107.068699 C93.092803,107.068699 94.0113636,106.56757 94.0113636,105.491695 C94.0113636,103.019755 89.0757576,103.951056 89.0757576,100.189486 C89.0757576,98.4342042 90.3768939,97 92.9015152,97 C94.0871212,97 95.0823864,97.3946944 95.5028409,97.7166586 C95.311553,98.2186744 95.0823864,98.7206902 94.9289773,99.2218191 L94.6998106,99.2218191" id="Fill-12" fill="#1A1919"></path>
                <path d="M99.2983246,107 C98.8738435,106.966435 98.5202551,106.93203 98.1666667,106.93203 C97.7421855,106.93203 97.3885971,106.966435 97,107 L97,97 L100.747687,97 C102.869217,97 104,97.8139632 104,99.4746161 C104,102.050768 102.020255,102.627255 99.2983246,102.627255 L99.2983246,107 Z M99.2983246,101.814131 C99.616029,101.779726 99.9696174,101.779726 100.288197,101.712595 C101.242186,101.440715 101.631658,100.627591 101.631658,99.712092 C101.631658,98.5591172 100.994499,97.7795586 100.252313,97.7795586 L99.2983246,97.7795586 L99.2983246,101.814131 L99.2983246,101.814131 Z" id="Fill-13" fill="#1A1919"></path>
                <path d="M106,97 C106.369383,97.0344046 106.677075,97.0679701 106.984768,97.0679701 C107.354151,97.0679701 107.661843,97.0344046 108,97 L108,107 C107.661843,106.966435 107.354151,106.93203 106.984768,106.93203 C106.677075,106.93203 106.369383,106.966435 106,107 L106,97" id="Fill-14" fill="#1A1919"></path>
                <path d="M114.212949,107 C113.850902,106.966435 113.416265,106.93203 113.054218,106.93203 C112.69217,106.93203 112.257533,106.966435 111.896382,107 L111.896382,98.0514391 C110.773496,98.0514391 109.796684,98.1529747 109,98.2545104 C109.035846,98.0514391 109.072589,97.8139632 109.072589,97.6100529 C109.072589,97.4069816 109.035846,97.2039104 109,97 L117,97 C116.964154,97.2039104 116.928307,97.4069816 116.928307,97.6100529 C116.928307,97.8139632 116.964154,98.0514391 117,98.2545104 C116.095777,98.1529747 115.190658,98.0514391 114.212949,98.0514391 L114.212949,107" id="Fill-15" fill="#1A1919"></path>
                <path d="M119.282691,103.990396 C118.956592,105.094055 118.597399,105.963405 118.304395,106.966882 C118.108251,106.966882 117.880628,106.932936 117.684484,106.932936 C117.456861,106.932936 117.195336,106.966882 117,106.966882 L121.010852,97 C121.173901,97.0331181 121.336951,97.0670641 121.532287,97.0670641 C121.72843,97.0670641 121.890673,97.0331181 122.054529,97 L126,107 C125.575426,106.966882 125.184753,106.932936 124.760179,106.932936 C124.369507,106.932936 123.978027,106.966882 123.55426,107 C123.228161,105.930286 122.967444,104.959927 122.543677,103.990396 L119.282691,103.990396 Z M122.249865,103.120219 L121.010852,99.7421759 L119.706457,103.120219 L122.249865,103.120219 L122.249865,103.120219 Z" id="Fill-16" fill="#1A1919"></path>
                <path d="M129.393074,105.94221 C130.754557,105.94221 131.932868,105.83998 133,105.737749 C132.963548,105.94221 132.927096,106.147516 132.927096,106.351977 C132.927096,106.556438 132.963548,106.795539 133,107 L127,107 L127,97 C127.368165,97.0346401 127.772783,97.0684353 128.178311,97.0684353 C128.582928,97.0684353 128.951094,97.0346401 129.393074,97 L129.393074,105.94221" id="Fill-17" fill="#1A1919"></path>
                <path d="M61.4504906,60 L61.4504906,62.678749 C60.765388,62.678749 60.0802855,62.8219693 59.5405888,63.2144988 C59.0713649,63.5363024 58.7475468,64.1790253 58.6396075,65.1073047 L58.6752899,89.6068074 C62.2069581,89.7137805 65.0900981,89.1426677 66.7475468,86.3215825 C67.5040143,84.8566692 67.8644068,83.357277 67.7564674,81.1426677 L71,81.1426677 L71,92 L48.7288136,92 C49.1980375,90.4997237 49.7020517,89.2142778 49.7743087,87.5000553 L49.7743087,65.1073047 C49.7020517,64.1790253 49.3416592,63.5363024 48.9099019,63.2144988 C48.3327386,62.8219693 47.719893,62.678749 47,62.678749 L47,60 L61.4504906,60" id="Fill-18" fill="#1A1919"></path>
                <path d="M68.0766393,116.47491 L69.8455314,118.501792 C70.4224682,117.887097 70.9232417,117.126344 71.3078662,116.330645 L72,116.982079 C71.4611448,117.669355 70.9232417,118.357527 70.2691896,119.008961 C70.8461264,119.551971 71.3459479,120.167563 71.9228847,120.710573 L71.9228847,120.854839 C71.5382601,120.854839 71.1917172,120.818996 70.8070927,120.818996 C70.3843865,120.818996 70.0387957,120.854839 69.6541711,120.854839 L69.000119,120.05914 C68.3841485,120.601254 67.3073902,121 66.4229442,121 C65.7308104,121 65.1919553,120.854839 64.6921338,120.492832 C64.1923123,120.130824 64,119.624552 64,119.081541 C64,117.887097 65.115792,117.126344 66.1535166,116.728495 C65.6927288,116.077061 65.2690706,115.569892 65.2690706,114.773297 C65.2690706,113.651434 66.3848625,113 67.4997025,113 C68.3841485,113 69.4609068,113.398746 69.4609068,114.412186 C69.4609068,115.280466 68.6926098,115.896057 67.9233607,116.330645 L68.0766393,116.47491 Z M68.5383792,114.448029 C68.5383792,113.977599 68.1918362,113.543011 67.7310484,113.543011 C67.1921933,113.543011 66.8075687,113.869176 66.8075687,114.412186 C66.8075687,114.918459 67.3073902,115.53405 67.5768178,115.9319 C68.0385577,115.606631 68.5383792,114.955197 68.5383792,114.448029 Z M65.5765798,118.53853 C65.5765798,118.900538 65.7308104,119.262545 66.000238,119.515233 C66.1925503,119.768817 66.4229442,119.913978 66.7694871,120.05914 C66.9617994,120.130824 67.2302749,120.130824 67.4225872,120.130824 C67.8072117,120.130824 68.3841485,119.913978 68.6926098,119.660394 C67.9233607,118.827957 67.2302749,117.99552 66.5000595,117.163082 C66.0383196,117.452509 65.5765798,117.958781 65.5765798,118.53853 L65.5765798,118.53853 Z" id="Fill-19" fill="#1A1919"></path>
                <path d="M76,113 C76.2554152,113 76.583935,113.073922 76.8754513,113.073922 C77.1308664,113.073922 77.4223827,113 77.75,113 L77.75,116.170431 C78.2969314,116.170431 78.9169675,116.207849 79.5,116.207849 C80.083935,116.207849 80.6669675,116.170431 81.2870036,116.170431 L81.2870036,113 C81.5424188,113 81.833935,113.073922 82.1254513,113.073922 C82.4169675,113.073922 82.7084838,113 83,113 L83,121 C82.7084838,121 82.4169675,120.963495 82.1254513,120.963495 C81.833935,120.963495 81.5424188,121 81.2870036,121 L81.2870036,117.092174 C80.6669675,117.092174 80.083935,117.05567 79.5,117.05567 C78.9169675,117.05567 78.2969314,117.092174 77.75,117.092174 L77.75,121 C77.4223827,121 77.1308664,120.963495 76.8754513,120.963495 C76.583935,120.963495 76.2554152,121 76,121 L76,113" id="Fill-20" fill="#1A1919"></path>
                <path d="M85.7228658,118.01915 C85.6873244,119.264362 86.0818331,120.245213 87.3017891,120.245213 C87.768269,120.245213 88.2711788,119.981784 88.5946049,119.680056 L88.7376587,119.793087 L88.4862038,120.472209 C88.0552652,120.811303 87.4093016,121 86.8717391,121 C84.9685011,121 84,119.793087 84,117.867819 C84,116.170481 84.9685011,115 86.6558255,115 C88.4142326,115 89.0966261,116.283512 88.9891136,118.01915 L85.7228658,118.01915 Z M87.3737603,117.415694 C87.3737603,116.811303 87.3017891,115.528725 86.6558255,115.528725 C85.8303783,115.528725 85.7228658,116.811303 85.7228658,117.415694 L87.3737603,117.415694 L87.3737603,117.415694 Z" id="Fill-21" fill="#1A1919"></path>
                <path d="M94.4523567,119.830453 C94.4523567,120.320878 94.5549339,120.433909 95,120.433909 L95,120.698272 C94.7261784,120.811303 94.315022,121 94.0412004,121 C93.4927094,121 93.1163106,120.660906 92.9450661,120.170481 C92.6373347,120.698272 92.1227535,121 91.5751102,121 C90.684978,121 90,120.472209 90,119.453059 C90,118.283512 90.6502204,117.981784 91.9862665,117.566091 C92.2600882,117.528725 92.5339098,117.453059 92.8077314,117.301728 C92.9111563,117.151331 92.9450661,117 92.9450661,116.849603 C92.9450661,116.245213 92.3974229,115.754787 91.9175992,115.754787 C91.1987114,115.754787 90.6502204,116.283512 90.6163106,116.546941 L90.5137335,116.546941 L90.342489,115.793087 C90.8901322,115.301728 91.7124449,115 92.3626653,115 C93.2875551,115 94.4523567,115.415694 94.4523567,116.622606 L94.4523567,119.830453 Z M92.9450661,117.793087 C92.7051543,117.906119 92.1914208,118.01915 91.8836894,118.283512 C91.60902,118.509575 91.5064429,118.924334 91.5064429,119.302662 C91.5064429,119.717422 91.6776874,120.245213 92.1227535,120.245213 C92.8077314,120.245213 92.9450661,119.528725 92.9450661,118.962634 L92.9450661,117.793087 L92.9450661,117.793087 Z" id="Fill-22" fill="#1A1919"></path>
                <path d="M97,121 C96.6886689,121 96.3333333,120.966993 95.9768977,120.966993 C95.6666667,120.966993 95.3553355,121 95,121 L95,113 C95.3553355,113 95.6666667,113.033007 95.9768977,113.033007 C96.3333333,113.033007 96.6886689,113 97,113 L97,121" id="Fill-23" fill="#1A1919"></path>
                <path d="M100.096886,119.302662 C100.096886,120.132181 100.128826,120.547875 101,120.283512 L101,120.736572 C100.644663,120.886969 100.290125,121 99.9355869,121 C98.8711738,121 98.6451956,120.207847 98.6451956,119.075666 L98.6451956,115.867819 L98,115.867819 C98,115.60439 98,115.377394 98,115.075666 L98.6451956,115.075666 L98.6451956,113.754787 C99.1290924,113.528725 99.5802502,113.301728 100.096886,113 L100.096886,115.075666 L100.935321,115.075666 C100.90338,115.377394 100.90338,115.60439 100.935321,115.867819 L100.096886,115.867819 L100.096886,119.302662" id="Fill-24" fill="#1A1919"></path>
                <path d="M103.583856,116.600206 C103.936018,116.2 104.605474,115.799794 105.204324,115.799794 C105.696827,115.799794 106.154463,115.966478 106.506625,116.299845 C106.894526,116.667045 107,117.133265 107,117.633316 L107,121 C106.718445,121 106.471757,120.966993 106.22507,120.966993 C105.978382,120.966993 105.696827,121 105.450139,121 L105.450139,118.399897 C105.450139,117.399794 105.309798,116.667045 104.5,116.667045 C103.478382,116.667045 103.583856,117.899845 103.583856,118.600413 L103.583856,121 C103.302301,121 103.055614,120.966993 102.774059,120.966993 C102.527371,120.966993 102.245816,121 102,121 L102,113 C102.245816,113 102.527371,113.033007 102.774059,113.033007 C103.055614,113.033007 103.302301,113 103.583856,113 L103.583856,116.600206" id="Fill-25" fill="#1A1919"></path>
                <path d="M112,113 L113.154906,113 C114.742121,114.806069 116.438305,116.61305 118.062141,118.456537 L118.062141,113 C118.205946,113 118.386372,113 118.531071,113 C118.675769,113 118.819574,113 119,113 L119,121 L118.02552,121 C116.691081,119.488706 115.463825,118.087839 114.128493,116.686972 L112.902131,115.32261 L112.902131,121 C112.757433,120.963495 112.613628,120.963495 112.468929,120.963495 C112.325124,120.963495 112.144698,120.963495 112,121 L112,113" id="Fill-26" fill="#1A1919"></path>
                <path d="M121.675604,118.01915 C121.638649,119.264362 122.038847,120.245213 123.313352,120.245213 C123.750506,120.245213 124.260668,119.981784 124.660866,119.680056 L124.806884,119.793087 L124.551803,120.472209 C124.041641,120.811303 123.45937,121 122.8771,121 C120.98337,121 120,119.793087 120,117.867819 C120,116.170481 120.98337,115 122.622019,115 C124.405785,115 125.09802,116.283512 124.988957,118.01915 L121.675604,118.01915 Z M123.423317,117.415694 C123.423317,116.811303 123.350307,115.528725 122.622019,115.528725 C121.784667,115.528725 121.711658,116.811303 121.675604,117.415694 L123.423317,117.415694 L123.423317,117.415694 Z" id="Fill-27" fill="#1A1919"></path>
                <path d="M127.736842,119.302662 C127.736842,120.132181 127.77853,120.547875 129,120.283512 L129,120.736572 C128.494528,120.886969 128.030745,121 127.609693,121 C126.220427,121 125.926524,120.207847 125.926524,119.075666 L125.926524,115.867819 L125,115.867819 C125.041688,115.60439 125.041688,115.377394 125,115.075666 L125.926524,115.075666 L125.926524,113.754787 C126.515373,113.528725 127.146952,113.301728 127.736842,113 L127.736842,115.075666 L128.87285,115.075666 C128.831162,115.377394 128.831162,115.60439 128.87285,115.867819 L127.736842,115.867819 L127.736842,119.302662" id="Fill-28" fill="#1A1919"></path>
                <path d="M131.644288,119.286128 C132.016889,117.882816 132.423896,116.480469 132.728522,115 C132.931606,115.039543 133.135529,115.116701 133.338613,115.116701 C133.542536,115.116701 133.74562,115.039543 133.949544,115 L135.033777,119.286128 C135.474352,117.882816 135.813385,116.480469 136.11885,115 C136.25396,115.039543 136.389909,115.039543 136.592993,115.039543 C136.728942,115.039543 136.86489,115.039543 137,115 C136.356341,116.831538 135.711843,118.935059 135.169726,121 C134.965803,121 134.796287,120.961421 134.62677,120.961421 C134.423686,120.961421 134.220602,121 134.016679,121 L132.931606,116.94824 C132.559006,118.272464 132.186405,119.597653 131.812965,121 C131.644288,121 131.440365,120.961421 131.270849,120.961421 C131.033358,120.961421 130.830274,121 130.660757,121 C130.152208,119.013181 129.610091,117.026362 129,115 C129.236652,115.039543 129.508549,115.116701 129.745201,115.116701 C130.050666,115.116701 130.321725,115.039543 130.559215,115 L131.644288,119.286128" id="Fill-29" fill="#1A1919"></path>
                <path d="M138,118.132181 C138,116.245213 139.115836,115 141,115 C142.846081,115 144,116.094816 144,117.867819 C144,119.680056 142.885116,121 141,121 C139.192955,121 138,119.867819 138,118.132181 Z M139.846081,118.094816 C139.846081,118.886969 139.923199,120.472209 141,120.472209 C141.961599,120.472209 142.192955,119 142.192955,117.680056 C142.192955,116.546941 141.884481,115.528725 141.077118,115.528725 C140.077436,115.528725 139.846081,116.698272 139.846081,118.094816 L139.846081,118.094816 Z" id="Fill-30" fill="#1A1919"></path>
                <path d="M144,115.077118 C144.291903,115.116154 144.625064,115.19232 144.916968,115.19232 C145.208871,115.19232 145.500774,115.116154 145.833935,115.077118 L145.833935,116.615678 C146.124807,115.731196 146.708613,115 148,115 C147.916452,115.57696 147.875193,116.115836 147.916452,116.653761 L147.791645,116.769914 C147.62558,116.653761 147.374936,116.615678 147.125322,116.615678 C146.541516,116.615678 146.083548,116.885116 145.916452,117.384957 C145.791645,117.769597 145.833935,118.423675 145.833935,118.808315 L145.833935,121 C145.500774,121 145.208871,120.961917 144.916968,120.961917 C144.625064,120.961917 144.291903,121 144,121 L144,115.077118" id="Fill-31" fill="#1A1919"></path>
                <path d="M148,113 C148.254789,113 148.510481,113.033007 148.766173,113.033007 C149.058005,113.033007 149.313697,113 149.569389,113 L149.569389,118.1672 C149.605529,118.200206 149.642573,118.200206 149.678713,118.1672 C150.444886,117.466632 151.174919,116.700052 151.904951,115.866632 C152.051319,115.900464 152.196784,115.966478 152.416335,115.966478 C152.5618,115.966478 152.744308,115.900464 152.890676,115.866632 L152.890676,115.966478 C152.269967,116.633213 151.576979,117.200103 150.95627,117.833007 L151.868811,119.200309 C152.233827,119.733368 152.634984,120.333265 153,120.933161 L153,121 C152.744308,121 152.452476,120.966993 152.1236,120.966993 C151.831767,120.966993 151.539935,121 151.285146,121 C150.883086,120.400103 150.372606,119.566684 149.897362,118.899948 C149.825081,118.767096 149.715757,118.633419 149.569389,118.566581 L149.569389,121 C149.313697,121 149.058005,120.966993 148.766173,120.966993 C148.510481,120.966993 148.254789,121 148,121 L148,113" id="Fill-32" fill="#1A1919"></path>
            </g>
        </g>
    </g>
</svg>