<svg xmlns="http://www.w3.org/2000/svg" width="30" height="30" viewBox="0 0 30 30">
    <defs>
        <linearGradient id="a" x1="0%" x2="95.257%" y1="100%" y2="0%">
            <stop offset="0%" stop-color="#F04C23"/>
            <stop offset="100%" stop-color="#F2B031"/>
        </linearGradient>
    </defs>
    <path fill="url(#a)" fill-rule="evenodd" d="M8.877 12.136l4.672 4.678L26.616 3.803l2.116 2.12L13.55 21.127l-6.788-6.798 2.116-2.193zM26.971 15H30c0 4.135-1.466 7.668-4.399 10.601C22.668 28.534 19.135 30 15 30c-4.135 0-7.668-1.466-10.601-4.399C1.466 22.668 0 19.135 0 15c0-4.135 1.466-7.668 4.399-10.601C7.332 1.466 10.865 0 15 0c1.923 0 3.798.385 5.625 1.154l-2.308 2.308A12.553 12.553 0 0 0 15 3.029c-3.317 0-6.142 1.166-8.474 3.497C4.195 8.858 3.03 11.683 3.03 15s1.166 6.142 3.497 8.474C8.858 25.805 11.683 26.97 15 26.97s6.142-1.166 8.474-3.497c2.331-2.332 3.497-5.157 3.497-8.474z"/>
</svg>
