<svg xmlns="http://www.w3.org/2000/svg" width="25" height="25" viewBox="0 0 25 25">
    <path fill="#F04C23" fill-rule="evenodd" d="M7.398 10.113l3.893 3.899L22.18 3.169l1.764 1.767-12.653 12.67-5.657-5.665 1.764-1.828zM22.476 12.5H25c0 3.446-1.222 6.39-3.666 8.834S15.946 25 12.5 25c-3.446 0-6.39-1.222-8.834-3.666S0 15.946 0 12.5c0-3.446 1.222-6.39 3.666-8.834S9.054 0 12.5 0c1.603 0 3.165.32 4.688.962l-1.924 1.923a10.46 10.46 0 0 0-2.764-.361c-2.764 0-5.118.972-7.061 2.915C3.496 7.382 2.524 9.736 2.524 12.5c0 2.764.972 5.118 2.915 7.061 1.943 1.943 4.297 2.915 7.061 2.915 2.764 0 5.118-.972 7.061-2.915 1.943-1.943 2.915-4.297 2.915-7.061z"/>
</svg>
