<?xml version="1.0" encoding="UTF-8"?>
<svg width="466px" height="386px" viewBox="0 0 466 386" version="1.1" xmlns="http://www.w3.org/2000/svg" xmlns:xlink="http://www.w3.org/1999/xlink">
    <!-- Generator: Sketch 52.5 (67469) - http://www.bohemiancoding.com/sketch -->
    <title>Rocket Stream 2</title>
    <desc>Created with Sketch.</desc>
    <defs>
        <path d="M15.6698492,502 C15.2177896,502 14.7567289,501.88605 14.3366735,501.644277 C13.0585051,500.913015 12.6204473,499.293933 13.3585446,498.026609 L19.0122897,488.324005 C19.750387,487.059654 21.3846024,486.62268 22.6637709,487.355924 C23.9419394,488.087187 24.378997,489.706269 23.6418998,490.971611 L17.9871546,500.674215 C17.4920894,501.525373 16.593971,502 15.6698492,502 Z M29.6698492,510 C29.2167895,510 28.7567289,509.887037 28.3366735,509.645255 C27.0585051,508.913966 26.6204473,507.295815 27.3585446,506.027454 L33.0122897,496.324494 C33.750387,495.060097 35.3846024,494.622116 36.6637709,495.356378 C37.9419394,496.086676 38.378997,497.706809 37.6418998,498.972197 L31.9871546,508.676148 C31.4920894,509.525356 30.593971,510 29.6698492,510 Z M18.6440497,514 C18.1954187,514 17.7408457,513.883201 17.3239061,513.6364 C16.0582322,512.885839 15.6244566,511.226277 16.3543484,509.928284 L29.0615963,487.357635 C29.7914881,486.060658 31.4067574,485.613775 32.6763928,486.364335 C33.9420668,487.112865 34.3758424,488.773442 33.6449603,490.070419 L20.9387027,512.642084 C20.4484769,513.513507 19.5591379,514 18.6440497,514 Z M43.1803107,502.024916 C42.7873107,502.024916 42.3943107,501.938916 42.0303107,501.764916 C41.2713107,501.402916 40.7263107,500.704916 40.5603107,499.878916 C40.4183107,499.168916 38.4183107,489.219916 36.4503107,478.701916 C26.3883107,482.416916 16.8773107,486.061916 16.7103107,486.125916 C15.9093107,486.433916 15.0113107,486.336916 14.2923107,485.868916 C13.5743107,485.399916 13.1253107,484.614916 13.0843107,483.758916 C13.0363107,482.759916 11.9963107,459.184916 18.7783107,447.351916 C24.0193107,438.208916 39.5833107,429.787916 44.2293107,427.424916 C48.8663107,425.064916 64.4303107,417.613916 69.9943107,420.764916 C75.5483107,423.984916 76.9833107,441.181916 77.2903107,446.375916 C77.5983107,451.578916 78.1973107,469.265916 72.9563107,478.408916 C66.1743107,490.240916 45.3043107,501.255916 44.4193107,501.719916 C44.0313107,501.921916 43.6063107,502.024916 43.1803107,502.024916 Z M41.5413107,476.835916 C42.8853107,484.040916 44.2703107,491.117916 45.0833107,495.224916 C51.0343107,491.760916 63.7603107,483.706916 68.3203107,475.750916 C75.2433107,463.670916 71.2773107,428.239916 67.3163107,425.389916 C62.9183107,423.443916 30.3393107,437.930916 23.4143107,450.009916 C18.8753107,457.928916 18.3383107,472.840916 18.3523107,479.779916 C22.2363107,478.302916 28.7733107,475.831916 35.4643107,473.365916 C34.3763107,467.390916 33.4023107,461.707916 32.8923107,457.931916 C32.1233107,452.230916 35.0543107,447.307916 40.0203107,445.959916 L40.4373107,445.846916 C45.0853107,444.586916 49.9933107,447.435916 51.9323107,452.301916 C54.0693107,451.977916 56.2443107,452.250916 58.1663107,453.101916 C60.7713107,454.253916 62.5973107,456.333916 63.3093107,458.957916 L63.4223107,459.372916 C64.8453107,464.621916 61.7833107,470.018916 56.4523107,471.663916 C53.0073107,472.725916 47.4363107,474.689916 41.5413107,476.835916 Z M42.7333107,450.883916 C42.4393107,450.883916 42.1403107,450.921916 41.8363107,451.003916 L41.4203107,451.117916 C38.7173107,451.850916 37.8503107,454.709916 38.1893107,457.217916 C38.6583107,460.691916 39.5483107,465.917916 40.5603107,471.502916 C46.1983107,469.457916 51.4863107,467.602916 54.8773107,466.556916 C57.4413107,465.765916 58.9303107,463.225916 58.2653107,460.774916 L58.1523107,460.358916 C57.7903107,459.024916 56.7843107,458.333916 56.0033107,457.988916 C54.8143107,457.461916 53.3563107,457.372916 52.0033107,457.739916 L50.8063107,458.064916 C50.1213107,458.250916 49.3923107,458.156916 48.7773107,457.803916 C48.1623107,457.451916 47.7123107,456.868916 47.5273107,456.184916 L47.2023107,454.986916 C46.6233107,452.850916 44.8283107,450.883916 42.7333107,450.883916 Z" id="path-1"></path>
    </defs>
    <g id="Desktop" stroke="none" stroke-width="1" fill="none" fill-rule="evenodd">
        <g id="1-Home" transform="translate(-382.000000, -2622.000000)">
            <g id="Home/Sections" transform="translate(0.000000, 1020.000000)">
                <g id="Feature-Details-2" transform="translate(0.000000, 1236.000000)">
                    <g id="Home-Feature-Details-Image">
                        <g id="Rocket-Stream-2" transform="translate(618.000000, 529.000000) rotate(10.000000) translate(-618.000000, -529.000000) translate(401.000000, 268.000000)">
                            <path d="M131.681201,28 C90.9687629,85.516953 93.2816253,200.502081 238.466765,269.180981 C335.256858,314.966915 384.767936,373.239921 387,444" id="Path-4" stroke="#F04C23" stroke-width="4" stroke-dasharray="13,24" transform="translate(248.000000, 236.000000) scale(-1, 1) rotate(-14.000000) translate(-248.000000, -236.000000) "></path>
                            <mask id="mask-2" fill="white">
                                <use xlink:href="#path-1"></use>
                            </mask>
                            <use id="Fill-27" fill="#F04C23" transform="translate(45.500000, 467.000000) rotate(-197.000000) translate(-45.500000, -467.000000) " xlink:href="#path-1"></use>
                        </g>
                    </g>
                </g>
            </g>
        </g>
    </g>
</svg>