<svg xmlns="http://www.w3.org/2000/svg" width="406" height="458" xmlns:xlink="http://www.w3.org/1999/xlink"><title>Rocket Stream 1</title><desc>Created with Sketch.</desc><defs><path id="a" d="M15.32 501.9c-.45 0-.9-.1-1.33-.35-1.3-.73-1.73-2.35-1-3.62l5.66-9.7c.74-1.27 2.38-1.7 3.65-.97 1.3.73 1.73 2.35 1 3.6l-5.66 9.72c-.5.85-1.4 1.32-2.32 1.32zm14 8c-.45 0-.9-.1-1.33-.35-1.3-.73-1.73-2.35-1-3.62l5.66-9.7c.74-1.27 2.38-1.7 3.65-.97 1.3.73 1.73 2.35 1 3.6l-5.66 9.72c-.5.85-1.4 1.32-2.32 1.32zm-11.02 4c-.45 0-.9-.1-1.32-.36-1.27-.75-1.7-2.4-.97-3.7l12.7-22.58c.74-1.3 2.36-1.74 3.63-1 1.26.76 1.7 2.42.97 3.7l-12.7 22.58c-.5.88-1.4 1.36-2.3 1.36zm24.46-11.97c-.4 0-.78-.1-1.15-.26-.74-.36-1.3-1.06-1.45-1.9-.14-.7-2.14-10.65-4.1-21.17-10.04 3.72-19.53 7.36-19.7 7.43-.8.3-1.7.2-2.4-.26-.73-.47-1.17-1.25-1.2-2.1-.06-1-1.1-24.58 5.67-36.42 5.23-9.14 20.75-17.56 25.4-19.92 4.6-2.36 20.14-9.8 25.7-6.66 5.54 3.22 6.97 20.4 7.27 25.6.3 5.2.9 22.9-4.33 32.04-6.77 11.84-27.6 22.86-28.47 23.32-.4.2-.8.3-1.24.3zm-1.63-25.2c1.34 7.2 2.72 14.3 3.53 18.4 5.94-3.47 18.63-11.52 23.18-19.48 6.9-12.08 2.95-47.5-1-50.36-4.4-1.95-36.9 12.53-43.8 24.6-4.53 7.93-5.06 22.84-5.05 29.78 3.87-1.47 10.4-3.95 17.06-6.4-1.08-6-2.05-11.67-2.56-15.45-.77-5.7 2.15-10.62 7.1-11.97l.43-.1c4.63-1.27 9.53 1.58 11.46 6.44 2.13-.32 4.3-.05 6.2.8 2.6 1.16 4.43 3.24 5.14 5.86l.12.42c1.42 5.24-1.64 10.64-6.96 12.3-3.43 1.05-9 3-14.87 5.16zm1.2-25.94c-.3 0-.6.02-.9.1l-.42.12c-2.7.73-3.56 3.6-3.22 6.1.47 3.47 1.36 8.7 2.37 14.3 5.62-2.06 10.9-3.9 14.28-4.96 2.56-.8 4.05-3.33 3.38-5.78l-.1-.42c-.36-1.33-1.37-2.02-2.14-2.37-1.2-.54-2.65-.62-4-.26l-1.2.33c-.67.18-1.4.1-2-.26-.63-.35-1.08-.93-1.26-1.6l-.33-1.2c-.57-2.15-2.36-4.1-4.45-4.1z"/></defs><g fill="none"><g><g><g><g><g transform="matrix(-1 0 0 1 420 -61)"><path stroke="#F04C23" stroke-width="4" d="M409.2 62.27c25.48 65.67-4.53 176.7-161.52 208.24-104.66 21.03-166.6 65.6-185.86 133.74" stroke-dasharray="13,24"/><mask><use xlink:href="#a"/></mask><use fill="#F04C23" transform="rotate(-197 44.818 466.903)" xlink:href="#a"/></g></g></g></g></g></g></svg>