<?xml version="1.0" encoding="UTF-8"?>
<svg width="427px" height="245px" viewBox="0 0 427 245" version="1.1" xmlns="http://www.w3.org/2000/svg" xmlns:xlink="http://www.w3.org/1999/xlink">
    <!-- Generator: Sketch 52.5 (67469) - http://www.bohemiancoding.com/sketch -->
    <title>Rocket</title>
    <desc>Created with Sketch.</desc>
    <defs>
        <path d="M410.184422,319 C409.814555,319 409.437324,318.90884 409.093642,318.715422 C408.047868,318.130412 407.689457,316.835146 408.293355,315.821287 L412.919146,308.059204 C413.523044,307.047723 414.860129,306.698144 415.906722,307.28474 C416.952496,307.869749 417.310088,309.165015 416.707009,310.177289 L412.080399,317.939372 C411.675346,318.620298 410.940522,319 410.184422,319 Z M421.184422,325 C420.813737,325 420.437324,324.909629 420.093642,324.716204 C419.047868,324.131173 418.689457,322.836652 419.293355,321.821963 L423.919146,314.059595 C424.523044,313.048077 425.860129,312.697693 426.906722,313.285102 C427.952496,313.869341 428.310088,315.165447 427.707009,316.177758 L423.080399,323.940919 C422.675346,324.620284 421.940522,325 421.184422,325 Z M412.056483,328 C411.707548,328 411.353991,327.908229 411.029705,327.714314 C410.045292,327.124588 409.707911,325.820646 410.275604,324.800795 L420.159019,307.066713 C420.726713,306.04766 421.983034,305.696537 422.970528,306.286264 C423.954941,306.874394 424.292322,308.179133 423.723858,309.198187 L413.841213,326.933066 C413.459926,327.617755 412.768218,328 412.056483,328 Z M432.124061,318.653008 C431.809924,318.653008 431.495787,318.584173 431.20483,318.444903 C430.598138,318.155157 430.162503,317.596475 430.029814,316.935342 C429.916309,316.367056 428.317646,308.403844 426.744563,299.985203 C418.701693,302.958701 411.099255,305.876171 410.965767,305.927397 C410.325503,306.173921 409.607703,306.096282 409.032984,305.721693 C408.459064,305.346304 408.100165,304.717987 408.067392,304.032842 C408.029024,303.233239 407.19772,284.363733 412.618783,274.892562 C416.808078,267.574475 429.248867,260.83428 432.962559,258.942927 C436.669058,257.053975 449.109847,251.090171 453.557325,253.612241 C457.99681,256.18954 459.14385,269.954074 459.389245,274.111368 C459.635439,278.275866 460.114238,292.432598 455.924944,299.750685 C450.50388,309.221056 433.82184,318.037498 433.114432,318.408885 C432.804292,318.570566 432.464576,318.653008 432.124061,318.653008 Z M430.813957,298.491651 C431.888258,304.258556 432.995332,309.92301 433.645188,313.210266 C438.402008,310.437669 448.574295,303.991221 452.219245,297.623213 C457.753014,287.954342 454.582867,259.595256 451.416717,257.314106 C447.901258,255.756522 421.85985,267.351963 416.324482,277.020034 C412.696319,283.358427 412.267078,295.29404 412.278268,300.848038 C415.38287,299.665842 420.608098,297.688046 425.956422,295.714252 C425.08675,290.931842 424.308202,286.383151 423.900543,283.360828 C423.285857,278.797729 425.628697,274.857344 429.598175,273.778401 L429.931496,273.687955 C433.646787,272.679447 437.569904,274.959796 439.119807,278.854558 C440.827977,278.595227 442.566523,278.813737 444.102837,279.494881 C446.185095,280.416945 447.644673,282.081784 448.213797,284.182042 L448.304121,284.514209 C449.441569,288.715526 446.994018,293.035302 442.732783,294.351965 C439.979088,295.201993 435.526014,296.773985 430.813957,298.491651 Z M431.76676,277.719586 C431.531757,277.719586 431.292757,277.750002 431.04976,277.815635 L430.717238,277.906881 C428.556646,278.493576 427.863626,280.781929 428.1346,282.78934 C428.509486,285.569941 429.220891,289.752848 430.029814,294.2231 C434.536442,292.586276 438.763305,291.101528 441.473837,290.264306 C443.523322,289.631187 444.713526,287.598163 444.181971,285.636375 L444.091646,285.303407 C443.802288,284.235669 442.998161,283.68259 442.373884,283.406451 C441.423479,282.984639 440.258054,282.913403 439.176559,283.207151 L438.21976,283.467282 C437.672218,283.616157 437.089506,283.540919 436.597917,283.258377 C436.106329,282.976635 435.74663,282.51 435.598753,281.962524 L435.338971,281.003641 C434.876158,279.293979 433.441359,277.719586 431.76676,277.719586 Z" id="path-1"></path>
    </defs>
    <g id="Desktop" stroke="none" stroke-width="1" fill="none" fill-rule="evenodd">
        <g id="6-Event-Support-Staff" transform="translate(-687.000000, -771.000000)">
            <g id="Event-Support-Hero">
                <g id="Rocket" transform="translate(897.000000, 863.500000) scale(-1, 1) rotate(8.000000) translate(-897.000000, -863.500000) translate(658.000000, 665.000000)">
                    <path d="M101.166819,32 C68.5981574,78.0817841 70.3853777,170.161599 186.383035,225.082747 C263.714807,261.696846 303.253795,308.33593 305,365" id="Path-4" stroke="#F04C23" stroke-width="3.2" stroke-dasharray="10.4,19.2" transform="translate(194.000000, 198.500000) rotate(-42.000000) translate(-194.000000, -198.500000) "></path>
                    <mask id="mask-2" fill="white">
                        <use xlink:href="#path-1"></use>
                    </mask>
                    <use id="Fill-27" fill="#F04C23" transform="translate(434.000000, 290.500000) rotate(-254.000000) translate(-434.000000, -290.500000) " xlink:href="#path-1"></use>
                </g>
            </g>
        </g>
    </g>
</svg>