<?xml version="1.0" encoding="UTF-8"?>
<svg width="146px" height="424px" viewBox="0 0 146 424" version="1.1" xmlns="http://www.w3.org/2000/svg" xmlns:xlink="http://www.w3.org/1999/xlink">
    <!-- Generator: sketchtool 52.5 (67469) - http://www.bohemiancoding.com/sketch -->
    <title>ED31FE96-EFA7-4E07-8A10-6C3F94E657E7</title>
    <desc>Created with sketchtool.</desc>
    <defs>
        <path d="M356.184422,96 C355.814555,96 355.437324,95.9088399 355.093642,95.715422 C354.047868,95.130412 353.689457,93.8351461 354.293355,92.8212873 L358.919146,85.0592039 C359.523044,84.0477233 360.860129,83.6981442 361.906722,84.2847395 C362.952496,84.8697495 363.310088,86.1650154 362.707009,87.1772888 L358.080399,94.9393722 C357.675346,95.6202984 356.940522,96 356.184422,96 Z M367.184422,102 C366.813737,102 366.437324,101.909629 366.093642,101.716204 C365.047868,101.131173 364.689457,99.8366521 365.293355,98.8219634 L369.919146,91.0595951 C370.523044,90.0480773 371.860129,89.6976926 372.906722,90.2851022 C373.952496,90.869341 374.310088,92.1654472 373.707009,93.1777577 L369.080399,100.940919 C368.675346,101.620284 367.940522,102 367.184422,102 Z M358.056483,105 C357.707548,105 357.353991,104.908229 357.029705,104.714314 C356.045292,104.124588 355.707911,102.820646 356.275604,101.800795 L366.159019,84.0667132 C366.726713,83.0476598 367.983034,82.6965373 368.970528,83.2862636 C369.954941,83.8743938 370.292322,85.1791332 369.723858,86.1981865 L359.841213,103.933066 C359.459926,104.617755 358.768218,105 358.056483,105 Z M378.124061,95.6530076 C377.809924,95.6530076 377.495787,95.5841729 377.20483,95.4449028 C376.598138,95.1551568 376.162503,94.5964754 376.029814,93.9353423 C375.916309,93.367056 374.317646,85.4038443 372.744563,76.9852032 C364.701693,79.9587012 357.099255,82.8761709 356.965767,82.9273967 C356.325503,83.1739209 355.607703,83.0962818 355.032984,82.7216931 C354.459064,82.346304 354.100165,81.7179875 354.067392,81.0328423 C354.029024,80.2332395 353.19772,61.3637334 358.618783,51.892562 C362.808078,44.5744754 375.248867,37.8342798 378.962559,35.942927 C382.669058,34.0539754 395.109847,28.0901709 399.557325,30.6122415 C403.99681,33.1895399 405.14385,46.9540741 405.389245,51.1113685 C405.635439,55.2758665 406.114238,69.4325983 401.924944,76.750685 C396.50388,86.221056 379.82184,95.0374975 379.114432,95.4088846 C378.804292,95.5705661 378.464576,95.6530076 378.124061,95.6530076 Z M376.813957,75.4916508 C377.888258,81.258556 378.995332,86.9230096 379.645188,90.2102657 C384.402008,87.4376689 394.574295,80.9912213 398.219245,74.6232133 C403.753014,64.9543423 400.582867,36.5952556 397.416717,34.3141064 C393.901258,32.7565217 367.85985,44.3519633 362.324482,54.0200338 C358.696319,60.358427 358.267078,72.2940399 358.278268,77.8480379 C361.38287,76.6658423 366.608098,74.6880459 371.956422,72.7142516 C371.08675,67.9318423 370.308202,63.3831508 369.900543,60.3608282 C369.285857,55.7977294 371.628697,51.8573443 375.598175,50.7784008 L375.931496,50.6879552 C379.646787,49.6794471 383.569904,51.9597959 385.119807,55.854558 C386.827977,55.5952274 388.566523,55.8137375 390.102837,56.4948806 C392.185095,57.4169451 393.644673,59.0817838 394.213797,61.1820419 L394.304121,61.5142092 C395.441569,65.7155258 392.994018,70.035302 388.732783,71.3519653 C385.979088,72.2019935 381.526014,73.7739854 376.813957,75.4916508 Z M377.76676,54.7195862 C377.531757,54.7195862 377.292757,54.7500016 377.04976,54.8156346 L376.717238,54.9068806 C374.556646,55.4935762 373.863626,57.781929 374.1346,59.7893403 C374.509486,62.5699411 375.220891,66.7528483 376.029814,71.2231004 C380.536442,69.5862758 384.763305,68.1015278 387.473837,67.264306 C389.523322,66.631187 390.713526,64.5981629 390.181971,62.6363745 L390.091646,62.3034068 C389.802288,61.2356689 388.998161,60.6825903 388.373884,60.4064512 C387.423479,59.9846387 386.258054,59.9134028 385.176559,60.2071508 L384.21976,60.4672818 C383.672218,60.6161568 383.089506,60.5409189 382.597917,60.2583766 C382.106329,59.9766346 381.74663,59.5099995 381.598753,58.9625237 L381.338971,58.0036407 C380.876158,56.2939794 379.441359,54.7195862 377.76676,54.7195862 Z" id="path-1"></path>
    </defs>
    <g id="Desktop" stroke="none" stroke-width="1" fill="none" fill-rule="evenodd">
        <g id="5-Contact" transform="translate(-1187.000000, -186.000000)">
            <g id="Rocket-Left" transform="translate(1237.000000, 406.500000) scale(-1, -1) rotate(-70.000000) translate(-1237.000000, -406.500000) translate(1025.000000, 286.000000)">
                <path d="M79.1668186,-46 C46.5981574,0.081784143 48.3853777,92.1615989 164.383035,147.082747 C241.714807,183.696846 281.253795,230.33593 283,287" id="Path-4" stroke="#F04C23" stroke-width="3.2" stroke-dasharray="10.4,19.2" transform="translate(172.000000, 120.500000) scale(-1, -1) rotate(-93.000000) translate(-172.000000, -120.500000) "></path>
                <mask id="mask-2" fill="white">
                    <use xlink:href="#path-1"></use>
                </mask>
                <use id="Fill-27" fill="#F04C23" transform="translate(380.000000, 67.500000) rotate(-254.000000) translate(-380.000000, -67.500000) " xlink:href="#path-1"></use>
            </g>
        </g>
    </g>
</svg>