<svg xmlns="http://www.w3.org/2000/svg" xmlns:xlink="http://www.w3.org/1999/xlink" width="104" height="104" viewBox="0 0 104 104">
    <defs>
        <path id="a" d="M43.718 0h16.564c14.222 0 20.11 1.624 25.813 4.675 5.704 3.05 10.18 7.526 13.23 13.23C102.375 23.61 104 29.496 104 43.718v16.564c0 14.222-1.624 20.11-4.675 25.813-3.05 5.704-7.526 10.18-13.23 13.23C80.39 102.375 74.504 104 60.282 104H43.718c-14.222 0-20.11-1.624-25.813-4.675-5.704-3.05-10.18-7.526-13.23-13.23C1.625 80.39 0 74.504 0 60.282V43.718c0-14.222 1.624-20.11 4.675-25.813 3.05-5.704 7.526-10.18 13.23-13.23C23.61 1.625 29.496 0 43.718 0z"/>
        <path id="c" d="M32.37 36.046c.197.197.31.47.31.749a1.063 1.063 0 0 1-1.058 1.058 1.07 1.07 0 0 1-.748-.31 1.066 1.066 0 0 1-.31-.748c0-.279.113-.552.31-.749.196-.197.47-.31.748-.31s.551.113.748.31zM63.713 15.93a1.77 1.77 0 0 1-.45 1.826l-2.345 2.288.554 3.228a1.768 1.768 0 0 1-.708 1.742 1.769 1.769 0 0 1-1.877.137l-2.897-1.523-2.9 1.524a1.774 1.774 0 0 1-1.877-.136 1.77 1.77 0 0 1-.708-1.742l.554-3.227-2.348-2.286a1.773 1.773 0 0 1-.452-1.827 1.772 1.772 0 0 1 1.438-1.212l3.241-.472 1.45-2.938a1.768 1.768 0 0 1 1.597-.994h.001c.681 0 1.295.381 1.597.993l1.45 2.937 3.24.47a1.77 1.77 0 0 1 1.44 1.212zm-4.398 2.72l1.983-1.934-2.743-.398a1.783 1.783 0 0 1-1.342-.976l-1.227-2.485-1.228 2.486a1.78 1.78 0 0 1-1.34.976l-2.745.399 1.988 1.935c.418.41.611.999.512 1.577l-.467 2.733 2.452-1.29a1.784 1.784 0 0 1 1.659-.002l2.456 1.29-.471-2.733a1.782 1.782 0 0 1 .513-1.577zm-14.879-2.72a1.77 1.77 0 0 1-.45 1.826l-2.345 2.288.555 3.228a1.768 1.768 0 0 1-.709 1.742 1.767 1.767 0 0 1-1.875.137l-2.899-1.523-2.9 1.524a1.775 1.775 0 0 1-1.876-.136 1.771 1.771 0 0 1-.709-1.742l.554-3.227-2.347-2.286a1.769 1.769 0 0 1-.451-1.827 1.77 1.77 0 0 1 1.438-1.212l3.24-.472 1.45-2.938a1.767 1.767 0 0 1 1.597-.994c.683 0 1.296.381 1.598.993l1.45 2.937 3.24.47a1.769 1.769 0 0 1 1.44 1.212zm-4.398 2.72l1.985-1.934-2.744-.398a1.781 1.781 0 0 1-1.341-.976l-1.229-2.486-1.226 2.487c-.26.526-.761.891-1.34.976l-2.746.399 1.987 1.935c.42.409.613.999.513 1.577l-.468 2.733 2.454-1.29a1.781 1.781 0 0 1 1.658-.002l2.454 1.29-.47-2.733a1.783 1.783 0 0 1 .513-1.577zm-14.877-2.72a1.77 1.77 0 0 1-.45 1.826l-2.345 2.288.554 3.228a1.767 1.767 0 0 1-.708 1.742 1.769 1.769 0 0 1-1.876.137l-2.899-1.523-2.899 1.524a1.773 1.773 0 0 1-1.876-.136 1.768 1.768 0 0 1-.709-1.742l.552-3.227-2.347-2.286a1.773 1.773 0 0 1-.45-1.827 1.769 1.769 0 0 1 1.439-1.212l3.24-.472 1.45-2.938a1.77 1.77 0 0 1 1.596-.994h.001c.682 0 1.295.381 1.597.993l1.45 2.937 3.24.47a1.77 1.77 0 0 1 1.44 1.212zm-4.398 2.72l1.985-1.934-2.745-.398a1.781 1.781 0 0 1-1.342-.976l-1.227-2.486-1.227 2.487a1.78 1.78 0 0 1-1.34.976l-2.745.399 1.986 1.935c.42.41.613.999.514 1.577l-.469 2.733 2.454-1.29a1.784 1.784 0 0 1 1.659-.002l2.454 1.29-.47-2.733a1.781 1.781 0 0 1 .513-1.577zm4.778 24.686a1.618 1.618 0 0 0-.848 1.832l1.937 8.03a12.361 12.361 0 0 0 2.05 4.426l3.796 5.193a1.058 1.058 0 1 1-1.709 1.249l-3.795-5.194a14.497 14.497 0 0 1-2.4-5.178l-1.937-8.03a3.727 3.727 0 0 1 1.953-4.218 3.724 3.724 0 0 1 4.978 1.563l.997 1.85v-3.894a1.058 1.058 0 0 1 2.117 0v8.08a1.059 1.059 0 1 1-1.99.504l-2.988-5.535a1.617 1.617 0 0 0-2.161-.678zm23.892-4.51a3.606 3.606 0 0 1 3.602 3.602v8.93c0 2.593-.393 5.165-1.17 7.64l-1.491 4.76a1.058 1.058 0 1 1-2.02-.633l1.493-4.76a23.392 23.392 0 0 0 1.073-7.007v-8.93a1.488 1.488 0 0 0-2.974 0v3.107a1.058 1.058 0 0 1-2.116 0v-4.981c0-.82-.666-1.487-1.486-1.487s-1.486.667-1.486 1.487v4.98a1.057 1.057 0 1 1-2.117 0V38.94c0-.819-.667-1.486-1.486-1.486-.82 0-1.486.667-1.486 1.486v6.594a1.058 1.058 0 0 1-2.117 0V30.6c0-.819-.667-1.486-1.487-1.486-.818 0-1.484.667-1.484 1.486v1.835a1.059 1.059 0 0 1-2.118 0V30.6a3.606 3.606 0 0 1 3.602-3.602A3.606 3.606 0 0 1 37.77 30.6v5.06a3.569 3.569 0 0 1 1.486-.322c1.452 0 2.705.864 3.275 2.103a3.575 3.575 0 0 1 1.814-.492 3.61 3.61 0 0 1 3.366 2.316c.51-.28 1.099-.44 1.723-.44z"/>
    </defs>
    <g fill="none" fill-rule="evenodd">
        <mask id="b" fill="#fff">
            <use xlink:href="#a"/>
        </mask>
        <use fill="#078587" xlink:href="#a"/>
        <g mask="url(#b)">
            <g transform="translate(15.6 15.6)">
                <mask id="d" fill="#fff">
                    <use xlink:href="#c"/>
                </mask>
                <use fill="#00425B" xlink:href="#c"/>
                <path fill="#FFF" d="M0 0h74v74H0z" mask="url(#d)"/>
            </g>
        </g>
    </g>
</svg>
