<svg xmlns="http://www.w3.org/2000/svg" xmlns:xlink="http://www.w3.org/1999/xlink" width="100" height="100" viewBox="0 0 100 100">
    <defs>
        <path id="a" d="M42.945 0h14.11c13.294 0 19.336 1.624 25.04 4.675 5.704 3.05 10.18 7.526 13.23 13.23C98.375 23.61 100 29.651 100 42.945v14.11c0 13.294-1.624 19.336-4.675 25.04-3.05 5.704-7.526 10.18-13.23 13.23C76.39 98.375 70.349 100 57.055 100h-14.11c-13.294 0-19.336-1.624-25.04-4.675-5.704-3.05-10.18-7.526-13.23-13.23C1.625 76.39 0 70.349 0 57.055v-14.11c0-13.294 1.624-19.336 4.675-25.04 3.05-5.704 7.526-10.18 13.23-13.23C23.61 1.625 29.651 0 42.945 0z"/>
        <path id="c" d="M35.016 13.96c-.691 0-1.387.053-2.064.157a1.015 1.015 0 0 0 .308 2.007 11.689 11.689 0 0 1 1.756-.133c6.327 0 11.473 5.147 11.473 11.474 0 2.809-1.016 5.384-2.698 7.382a10.147 10.147 0 0 0-5.3-4.436 4.959 4.959 0 0 0 1.5-3.555v-.99a4.98 4.98 0 0 0-4.975-4.975 4.98 4.98 0 0 0-4.975 4.974v.99c0 1.392.575 2.653 1.5 3.556a10.16 10.16 0 0 0-5.312 4.455 11.445 11.445 0 0 1-2.529-5.488 1.016 1.016 0 1 0-2.002.336 13.516 13.516 0 0 0 4.55 8.023 13.517 13.517 0 0 0 8.768 3.232c7.446 0 13.504-6.058 13.504-13.504S42.462 13.96 35.016 13.96zm-2.944 11.905a2.947 2.947 0 0 1 2.944-2.944 2.948 2.948 0 0 1 2.944 2.944v.99a2.948 2.948 0 0 1-2.944 2.946 2.947 2.947 0 0 1-2.944-2.945v-.99zm2.944 13.073c-2.75 0-5.29-.96-7.28-2.589a8.075 8.075 0 0 1 7.28-4.519 8.072 8.072 0 0 1 7.27 4.504 11.423 11.423 0 0 1-7.27 2.604zm9.377 11.372a1.015 1.015 0 1 1 0 2.03H29.975a1.015 1.015 0 0 1 0-2.03h14.418zm-18.037-5.389a1.017 1.017 0 0 1-.718 1.734 1.018 1.018 0 0 1-1.015-1.016c0-.267.109-.527.298-.718a1.02 1.02 0 0 1 .717-.297c.267 0 .53.109.718.297zm0 5.686a1.015 1.015 0 1 1-1.434 1.437 1.015 1.015 0 0 1 1.434-1.437zm18.037-5.983a1.016 1.016 0 0 1 0 2.03H29.975a1.015 1.015 0 0 1 0-2.03h14.418zM25.433 15.75c.397.397.397 1.04 0 1.436L21.41 21.21a1.016 1.016 0 0 1-1.436 0l-1.848-1.848a1.015 1.015 0 0 1 1.436-1.436l1.13 1.13 3.307-3.307a1.015 1.015 0 0 1 1.436 0zm28.062-5.851a3.05 3.05 0 0 1 3.046 3.047V58.84a3.05 3.05 0 0 1-3.046 3.046H16.536a3.05 3.05 0 0 1-3.045-3.046V31.66a1.014 1.014 0 1 1 2.03 0v27.178c0 .559.456 1.014 1.015 1.014h36.959c.56 0 1.014-.455 1.014-1.014V12.946c0-.56-.454-1.017-1.014-1.017H32.95a1.014 1.014 0 0 1 0-2.03h20.545zM15.223 27.153a1.015 1.015 0 1 1-1.434 1.437 1.015 1.015 0 0 1 1.434-1.437zM21.816 9.9c4.591 0 8.326 3.735 8.326 8.326 0 4.591-3.735 8.327-8.326 8.327-4.59 0-8.326-3.736-8.326-8.327 0-4.59 3.736-8.326 8.326-8.326zm0 14.621a6.302 6.302 0 0 0 6.295-6.295 6.303 6.303 0 0 0-6.295-6.296 6.302 6.302 0 0 0-6.294 6.296 6.301 6.301 0 0 0 6.294 6.295z"/>
    </defs>
    <g fill="none" fill-rule="evenodd">
        <mask id="b" fill="#fff">
            <use xlink:href="#a"/>
        </mask>
        <use fill="#50B99F" xlink:href="#a"/>
        <g mask="url(#b)">
            <g transform="translate(15 15)">
                <mask id="d" fill="#fff">
                    <use xlink:href="#c"/>
                </mask>
                <use fill="#FEFEFE" xlink:href="#c"/>
                <path fill="#FFF" d="M0 0h71v71H0z" mask="url(#d)"/>
            </g>
        </g>
    </g>
</svg>
