<svg xmlns="http://www.w3.org/2000/svg" xmlns:xlink="http://www.w3.org/1999/xlink" width="100" height="100" viewBox="0 0 100 100">
    <defs>
        <path id="a" d="M42.945 0h14.11c13.294 0 19.336 1.624 25.04 4.675 5.704 3.05 10.18 7.526 13.23 13.23C98.375 23.61 100 29.651 100 42.945v14.11c0 13.294-1.624 19.336-4.675 25.04-3.05 5.704-7.526 10.18-13.23 13.23C76.39 98.375 70.349 100 57.055 100h-14.11c-13.294 0-19.336-1.624-25.04-4.675-5.704-3.05-10.18-7.526-13.23-13.23C1.625 76.39 0 70.349 0 57.055v-14.11c0-13.294 1.624-19.336 4.675-25.04 3.05-5.704 7.526-10.18 13.23-13.23C23.61 1.625 29.651 0 42.945 0z"/>
        <path id="c" d="M56.14 9.899H41.517a5.082 5.082 0 0 0-5.077 5.077V25.84a5.082 5.082 0 0 0 4.5 5.044v2.639a1.017 1.017 0 0 0 1.735.717L46 30.916h10.14a5.083 5.083 0 0 0 5.077-5.076V14.976c0-2.8-2.279-5.077-5.077-5.077zm3.045 15.941a3.049 3.049 0 0 1-3.046 3.046H45.58a1.02 1.02 0 0 0-.718.298l-1.888 1.887v-1.17c0-.56-.455-1.015-1.016-1.015h-.439a3.05 3.05 0 0 1-3.047-3.046V14.976a3.05 3.05 0 0 1 3.047-3.046H56.14a3.049 3.049 0 0 1 3.046 3.046V25.84zm-3.75 7.743a1.022 1.022 0 0 1 0 1.436 1.015 1.015 0 1 1 0-1.436zM33.198 46.136a1.017 1.017 0 0 1 0 1.436c-.188.19-.45.298-.717.298-.267 0-.53-.108-.718-.298a1.022 1.022 0 0 1 0-1.436 1.017 1.017 0 0 1 1.436 0zm21.52-9.026c.56 0 1.013.455 1.014 1.016v10.176a2.823 2.823 0 0 1-2.823 2.818h-15.45v4.69a5.09 5.09 0 0 1 4.565 5.058c0 .56-.454 1.015-1.015 1.015H23.952a1.015 1.015 0 0 1-1.015-1.015 5.09 5.09 0 0 1 4.567-5.058v-4.69H12.053a2.824 2.824 0 0 1-2.824-2.818V18.198a2.824 2.824 0 0 1 2.824-2.818h21.105a1.015 1.015 0 0 1 0 2.03H12.053a.79.79 0 0 0-.793.788v24.394h3.453v-2.507c0-3.86 2.903-7.055 6.641-7.518a5.268 5.268 0 0 1-1.183-3.333v-3.878c0-2.36 1.921-4.28 4.28-4.28h5.314c.56 0 1.015.454 1.015 1.015v7.143a5.286 5.286 0 0 1-1.182 3.333c3.736.463 6.64 3.657 6.64 7.518v2.506H53.7v-4.465c0-.561.454-1.016 1.016-1.016zM22.2 25.356v.833h5.087c.804 0 1.462-.656 1.462-1.462v-1.62h-4.3c-1.24 0-2.249 1.01-2.249 2.25zm0 2.863v1.015a3.278 3.278 0 0 0 3.274 3.273 3.278 3.278 0 0 0 3.275-3.273v-1.337c-.447.206-.94.322-1.462.322h-5.087zm4.46 6.319H24.29l1.185 1.185 1.186-1.185zm-9.917 5.547v2.507h17.464v-2.507a5.557 5.557 0 0 0-4.736-5.487l-3.278 3.278a1.017 1.017 0 0 1-1.437 0l-3.279-3.278a5.556 5.556 0 0 0-4.734 5.487zM39.82 59.852a3.057 3.057 0 0 0-2.878-2.037h-8.922c-1.329 0-2.461.851-2.88 2.037h14.68zm-10.287-4.068h5.893V51.12h-5.893v4.664zm24.167-7.482v-3.68h-42.44v3.68a.79.79 0 0 0 .792.787h40.856a.791.791 0 0 0 .792-.787z"/>
    </defs>
    <g fill="none" fill-rule="evenodd">
        <mask id="b" fill="#fff">
            <use xlink:href="#a"/>
        </mask>
        <use fill="#01435C" xlink:href="#a"/>
        <g mask="url(#b)">
            <g transform="translate(15 15)">
                <mask id="d" fill="#fff">
                    <use xlink:href="#c"/>
                </mask>
                <use fill="#00425B" xlink:href="#c"/>
                <path fill="#FFF" d="M0 0h71v71H0z" mask="url(#d)"/>
            </g>
        </g>
    </g>
</svg>
