<svg xmlns="http://www.w3.org/2000/svg" xmlns:xlink="http://www.w3.org/1999/xlink" width="100" height="100" viewBox="0 0 100 100">
    <defs>
        <path id="a" d="M42.945 0h14.11c13.294 0 19.336 1.624 25.04 4.675 5.704 3.05 10.18 7.526 13.23 13.23C98.375 23.61 100 29.651 100 42.945v14.11c0 13.294-1.624 19.336-4.675 25.04-3.05 5.704-7.526 10.18-13.23 13.23C76.39 98.375 70.349 100 57.055 100h-14.11c-13.294 0-19.336-1.624-25.04-4.675-5.704-3.05-10.18-7.526-13.23-13.23C1.625 76.39 0 70.349 0 57.055v-14.11c0-13.294 1.624-19.336 4.675-25.04 3.05-5.704 7.526-10.18 13.23-13.23C23.61 1.625 29.651 0 42.945 0z"/>
        <path id="c" d="M22.898 25.516c.45 0 .84.164 1.17.494.329.329.494.719.494 1.17v33.28c0 .452-.165.842-.494 1.171a1.6 1.6 0 0 1-1.17.494H11.249a1.6 1.6 0 0 1-1.17-.494 1.6 1.6 0 0 1-.494-1.17V27.18c0-.451.165-.841.494-1.17a1.6 1.6 0 0 1 1.17-.494h11.649zm-.533 34.479V27.69h-10.65v32.305h10.65zM41.358 35.5c.45 0 .84.165 1.17.494.329.33.494.72.494 1.17v23.4c0 .452-.165.842-.494 1.171a1.6 1.6 0 0 1-1.17.494H29.709c-.485 0-.884-.165-1.196-.494a1.644 1.644 0 0 1-.468-1.17v-23.4c0-.452.156-.842.468-1.171.312-.33.71-.494 1.196-.494h11.649zm-.533 24.495V37.63h-10.65v22.365h10.65zm18.637-51.12c.451 0 .841.165 1.17.494.33.33.495.72.495 1.17v49.922c0 .45-.165.84-.494 1.17a1.6 1.6 0 0 1-1.17.494H47.813a1.6 1.6 0 0 1-1.17-.494 1.6 1.6 0 0 1-.494-1.17V10.539c0-.45.165-.84.494-1.17a1.6 1.6 0 0 1 1.17-.494h11.648zm-.532 51.12H48.28v-48.99h10.65v48.99zM35.472 18.56c2.14 0 3.878 1.625 3.878 3.624 0 1.633-1.163 3.016-2.755 3.467v.073a1.123 1.123 0 1 1-2.244 0v-.073c-1.593-.45-2.756-1.834-2.756-3.467a1.124 1.124 0 1 1 2.248 0c0 .758.73 1.376 1.63 1.376.899 0 1.63-.618 1.63-1.376 0-.76-.731-1.377-1.63-1.377-2.139 0-3.878-1.626-3.878-3.623 0-1.633 1.163-3.016 2.756-3.467v-.168a1.122 1.122 0 1 1 2.244 0v.168c1.593.45 2.755 1.834 2.755 3.467a1.123 1.123 0 1 1-2.247 0c0-.758-.731-1.376-1.63-1.376-.9 0-1.63.618-1.63 1.376 0 .759.73 1.376 1.63 1.376z"/>
    </defs>
    <g fill="none" fill-rule="evenodd">
        <mask id="b" fill="#fff">
            <use xlink:href="#a"/>
        </mask>
        <use fill="#F2B031" xlink:href="#a"/>
        <g mask="url(#b)">
            <g transform="translate(15 15)">
                <mask id="d" fill="#fff">
                    <use xlink:href="#c"/>
                </mask>
                <use fill="#000" xlink:href="#c"/>
                <path fill="#FFF" d="M0 0h71v71H0z" mask="url(#d)"/>
            </g>
        </g>
    </g>
</svg>
