<svg xmlns="http://www.w3.org/2000/svg" xmlns:xlink="http://www.w3.org/1999/xlink" width="100" height="100" viewBox="0 0 100 100">
    <defs>
        <path id="a" d="M42.945 0h14.11c13.294 0 19.336 1.624 25.04 4.675 5.704 3.05 10.18 7.526 13.23 13.23C98.375 23.61 100 29.651 100 42.945v14.11c0 13.294-1.624 19.336-4.675 25.04-3.05 5.704-7.526 10.18-13.23 13.23C76.39 98.375 70.349 100 57.055 100h-14.11c-13.294 0-19.336-1.624-25.04-4.675-5.704-3.05-10.18-7.526-13.23-13.23C1.625 76.39 0 70.349 0 57.055v-14.11c0-13.294 1.624-19.336 4.675-25.04 3.05-5.704 7.526-10.18 13.23-13.23C23.61 1.625 29.651 0 42.945 0z"/>
        <path id="c" d="M44.375 29.386c0-.384.135-.713.405-.986.27-.274.594-.41.972-.41s.705.136.981.41c.277.273.415.602.415.986 0 .371-.138.694-.415.967a1.35 1.35 0 0 1-.981.41c-.378 0-.702-.137-.972-.41a1.33 1.33 0 0 1-.405-.967zm.098-12.158h2.558l-.361 9.258h-1.816l-.381-9.258zM30.615 35.17a1.036 1.036 0 1 1 0 2.07H15.499a1.036 1.036 0 0 1 0-2.07h15.116zM46.832 8.875c8.297 0 15.047 6.75 15.047 15.047 0 2.403-.55 4.7-1.635 6.827a15.189 15.189 0 0 1-3.954 4.876v5.99a1.036 1.036 0 0 1-1.768.732l-3.871-3.868c-1.242.326-2.524.49-3.819.49h-2.62c-8.297 0-15.046-6.75-15.046-15.047s6.75-15.047 15.047-15.047h2.62zm7.8 25.419c3.289-2.479 5.178-6.258 5.178-10.372 0-7.156-5.821-12.977-12.978-12.977h-2.62c-7.155 0-12.976 5.821-12.976 12.977 0 7.155 5.821 12.976 12.977 12.976h2.62c1.3 0 2.585-.192 3.817-.57a1.034 1.034 0 0 1 1.036.257l2.531 2.532V35.12c0-.326.154-.632.415-.827zm-9.938 7.605c.572 0 1.035.464 1.035 1.036v7.143c0 3.996-3.25 7.246-7.246 7.246H28.339l-.002 3.52a1.036 1.036 0 0 1-1.767.733l-4.252-4.253h-6.196c-3.997 0-7.247-3.25-7.247-7.246V34.135c0-3.996 3.25-7.247 7.247-7.247h10.456a1.036 1.036 0 0 1 0 2.07H16.122a5.182 5.182 0 0 0-5.177 5.177v15.943a5.182 5.182 0 0 0 5.177 5.176h6.726c.423 0 .79.254.95.622l2.472 2.471v-2.059a1.036 1.036 0 0 1 1.036-1.034h11.177a5.182 5.182 0 0 0 5.177-5.176v-7.143c0-.572.462-1.036 1.034-1.036zm-7.35-.931c.573 0 1.034.463 1.034 1.036 0 .57-.461 1.034-1.033 1.034H15.5a1.034 1.034 0 0 1 0-2.07h21.845zm.733 6.1a1.042 1.042 0 0 1 0 1.464 1.04 1.04 0 0 1-1.768-.732 1.035 1.035 0 0 1 1.768-.732zm-4.805-.303a1.035 1.035 0 1 1 0 2.07H15.5a1.036 1.036 0 0 1 0-2.07h17.772z"/>
    </defs>
    <g fill="none" fill-rule="evenodd">
        <mask id="b" fill="#fff">
            <use xlink:href="#a"/>
        </mask>
        <use fill="#F04C23" xlink:href="#a"/>
        <g mask="url(#b)">
            <g transform="translate(15 15)">
                <mask id="d" fill="#fff">
                    <use xlink:href="#c"/>
                </mask>
                <use fill="#FFF" xlink:href="#c"/>
                <path fill="#FFF" d="M0 0h71v71H0z" mask="url(#d)"/>
            </g>
        </g>
    </g>
</svg>
