<svg xmlns="http://www.w3.org/2000/svg" width="30" height="30" viewBox="0 0 30 30">
    <g fill="#01435C" fill-rule="evenodd" opacity=".447">
        <path d="M15.072 17.943a2.881 2.881 0 0 0 2.885-2.878 2.881 2.881 0 0 0-2.885-2.877 2.881 2.881 0 0 0-2.884 2.877 2.881 2.881 0 0 0 2.884 2.878M18.233 12.235h2.027a.42.42 0 0 0 .42-.418V9.793a.42.42 0 0 0-.42-.418h-2.027a.42.42 0 0 0-.42.418v2.024c0 .23.188.418.42.418"/>
        <path d="M22.5 20.72c0 .983-.798 1.78-1.783 1.78H9.283A1.782 1.782 0 0 1 7.5 20.72V9.279A1.78 1.78 0 0 1 9.283 7.5h11.434A1.78 1.78 0 0 1 22.5 9.278v11.443zM15 0C6.715 0 0 6.715 0 15c0 8.284 6.715 15 15 15s15-6.716 15-15c0-8.285-6.715-15-15-15z"/>
        <path d="M19.742 15.266a4.563 4.563 0 0 1-9.126 0c0-.416.056-.82.162-1.204H9.375v6.524c0 .231.188.419.42.419h10.768a.42.42 0 0 0 .42-.42v-6.523H19.58c.106.384.162.788.162 1.204"/>
    </g>
</svg>
