<?xml version="1.0" encoding="UTF-8"?>
<svg width="46px" height="46px" viewBox="0 0 46 46" version="1.1" xmlns="http://www.w3.org/2000/svg" xmlns:xlink="http://www.w3.org/1999/xlink">
    <!-- Generator: Sketch 52.5 (67469) - http://www.bohemiancoding.com/sketch -->
    <title>Chat Support</title>
    <desc>Created with Sketch.</desc>
    <g id="Page-1" stroke="none" stroke-width="1" fill="none" fill-rule="evenodd">
        <g id="Artboard" transform="translate(-1049.000000, -162.000000)" fill="#FFFFFF">
            <g id="Stacked-Group" transform="translate(173.000000, 148.000000)">
                <g id="Chat-Support" transform="translate(876.000000, 14.000000)">
                    <path d="M23,45.5 C10.5735931,45.5 0.5,35.4264069 0.5,23 C0.5,10.5735931 10.5735931,0.5 23,0.5 C35.4264069,0.5 45.5,10.5735931 45.5,23 C45.5,35.4264069 35.4264069,45.5 23,45.5 Z M34.1739069,36.2954545 C34.2040374,35.7090025 34.2463949,35.2615424 34.2468315,34.8142954 C34.2511983,28.4223733 34.2505433,22.0308775 34.2479232,15.6391685 C34.2479232,15.2490532 34.2455215,14.8568061 34.2044741,14.4696753 C34.1055673,13.5404334 33.700115,12.7683035 32.8876821,12.2415413 C32.2573424,11.8324531 31.5435979,11.7520851 30.8010329,11.7535774 C26.5093957,11.7623177 22.2179768,11.7576278 17.9263396,11.7578409 C16.8717706,11.7578409 15.8161099,11.7350309 14.7624143,11.7672208 C13.3329603,11.8111354 12.2517541,12.5996799 11.9349468,13.8484753 C11.8054728,14.3586097 11.7648621,14.9007207 11.760932,15.4287621 C11.74281,17.7368377 11.7526352,20.0451266 11.7528535,22.3532023 C11.7532902,25.0164321 11.7585303,27.6796619 11.7530718,30.3428918 C11.7489234,32.4522858 13.1144047,33.6705967 15.1453779,33.6177286 C18.7798199,33.5230777 22.4186287,33.5780776 26.0552542,33.6053643 C26.6205293,33.6094147 27.21266,33.7245307 27.7438745,33.9166039 C29.4475602,34.5318349 31.1265737,35.2110192 32.8189058,35.8556688 C33.2136596,36.0061723 33.6234787,36.1183038 34.1739069,36.2954545 Z M23.3977251,30.3928571 C20.2656281,30.3396149 17.7776137,29.6637971 15.4694648,28.0305982 C15.0348521,27.7229035 14.5733716,27.4037764 14.2457328,26.9415811 C14.0457165,26.6593643 13.938245,26.0269897 14.0375068,25.6709523 C14.191002,25.1205643 14.6288487,25.1845857 14.9923113,25.440018 C15.2104883,25.5935387 15.4027926,25.8104275 15.6207209,25.9632949 C20.5639112,29.4397222 25.4964042,29.4469083 30.4144681,25.8708559 C30.4866133,25.8182669 30.5488074,25.7431397 30.61946,25.687611 C31.2844397,25.1656406 31.7095989,25.1555147 31.905386,25.6974102 C32.1899864,26.4865719 31.7817441,26.9098971 31.3538484,27.2845529 C29.746503,28.6940036 27.9724773,29.5739712 26.0772974,29.9953365 C25.0212409,30.2305172 23.9457798,30.3147902 23.3977251,30.3928571 Z" id="Combined-Shape"></path>
                </g>
            </g>
        </g>
    </g>
</svg>